<svg xmlns="http://www.w3.org/2000/svg" width="1200.8" height="350"><path fill-rule="evenodd" clip-rule="evenodd" fill="#55C1E7" d="M-12.1-2.523h1242v233.906h-1242z"/><path fill="#919396" d="M901.383 60.113h63.412v169.48h-63.412z"/><g fill="#FFF"><path d="M905.975 64.58h6.75v6.923h-6.75zm8.291 0h6.746v6.923h-6.746zm8.004 0h6.748v6.923h-6.748zm8.287 0h6.75v6.923h-6.75zm8.07 0h6.748v6.923h-6.748zm8.291 0h6.744v6.923h-6.744zm8.002 0h6.748v6.923h-6.748z"/><path d="M905.975 64.58h6.75v6.923h-6.75zm8.291 0h6.746v6.923h-6.746zm8.004 0h6.748v6.923h-6.748zm8.287 0h6.75v6.923h-6.75zm8.07 0h6.748v6.923h-6.748zm8.291 0h6.744v6.923h-6.744zm8.002 0h6.748v6.923h-6.748zm-48.945 8.588h6.75v6.92h-6.75zm8.291 0h6.746v6.92h-6.746zm8.004 0h6.748v6.92h-6.748zm8.287 0h6.75v6.92h-6.75zm8.07 0h6.748v6.92h-6.748zm8.291 0h6.744v6.92h-6.744zm8.002 0h6.748v6.92h-6.748zm-48.945 8.776h6.75v6.919h-6.75zm8.291 0h6.746v6.919h-6.746zm8.004 0h6.748v6.919h-6.748zm8.287 0h6.75v6.919h-6.75zm8.07 0h6.748v6.919h-6.748zm8.291 0h6.744v6.919h-6.744zm8.002 0h6.748v6.919h-6.748z"/><path d="M905.975 81.944h6.75v6.919h-6.75zm8.291 0h6.746v6.919h-6.746zm8.004 0h6.748v6.919h-6.748zm8.287 0h6.75v6.919h-6.75zm8.07 0h6.748v6.919h-6.748zm8.291 0h6.744v6.919h-6.744zm8.002 0h6.748v6.919h-6.748zm-48.945 8.525h6.75v6.92h-6.75zm8.291 0h6.746v6.92h-6.746zm8.004 0h6.748v6.92h-6.748zm8.287 0h6.75v6.92h-6.75zm8.07 0h6.748v6.92h-6.748zm8.291 0h6.744v6.92h-6.744zm8.002 0h6.748v6.92h-6.748zm-48.945 8.929h6.75v6.922h-6.75zm8.291 0h6.746v6.922h-6.746zm8.004 0h6.748v6.922h-6.748zm8.287 0h6.75v6.922h-6.75zm8.07 0h6.748v6.922h-6.748zm8.291 0h6.744v6.922h-6.744zm8.002 0h6.748v6.922h-6.748z"/><path d="M905.975 99.398h6.75v6.922h-6.75zm8.291 0h6.746v6.922h-6.746zm8.004 0h6.748v6.922h-6.748zm8.287 0h6.75v6.922h-6.75zm8.07 0h6.748v6.922h-6.748zm8.291 0h6.744v6.922h-6.744zm8.002 0h6.748v6.922h-6.748zm-48.945 8.588h6.75v6.922h-6.75zm8.291 0h6.746v6.922h-6.746zm8.004 0h6.748v6.922h-6.748zm8.287 0h6.75v6.922h-6.75zm8.07 0h6.748v6.922h-6.748zm8.291 0h6.744v6.922h-6.744zm8.002 0h6.748v6.922h-6.748zm-48.945 8.777h6.75v6.921h-6.75zm8.291 0h6.746v6.921h-6.746zm8.004 0h6.748v6.921h-6.748zm8.287 0h6.75v6.921h-6.75zm8.07 0h6.748v6.921h-6.748zm8.291 0h6.744v6.921h-6.744zm8.002 0h6.748v6.921h-6.748z"/><path d="M905.975 116.763h6.75v6.921h-6.75zm8.291 0h6.746v6.921h-6.746zm8.004 0h6.748v6.921h-6.748zm8.287 0h6.75v6.921h-6.75zm8.07 0h6.748v6.921h-6.748zm8.291 0h6.744v6.921h-6.744zm8.002 0h6.748v6.921h-6.748zm-48.945 8.526h6.75v6.919h-6.75zm8.291 0h6.746v6.919h-6.746zm8.004 0h6.748v6.919h-6.748zm8.287 0h6.75v6.919h-6.75zm8.07 0h6.748v6.919h-6.748zm8.291 0h6.744v6.919h-6.744zm8.002 0h6.748v6.919h-6.748zm-48.945 8.647h6.75v6.92h-6.75zm8.291 0h6.746v6.92h-6.746zm8.004 0h6.748v6.92h-6.748zm8.287 0h6.75v6.92h-6.75zm8.07 0h6.748v6.92h-6.748zm8.291 0h6.744v6.92h-6.744zm8.002 0h6.748v6.92h-6.748z"/><path d="M905.975 133.936h6.75v6.92h-6.75zm8.291 0h6.746v6.92h-6.746zm8.004 0h6.748v6.92h-6.748zm8.287 0h6.75v6.92h-6.75zm8.07 0h6.748v6.92h-6.748zm8.291 0h6.744v6.92h-6.744zm8.002 0h6.748v6.92h-6.748zm-48.945 8.587h6.75v6.92h-6.75zm8.291 0h6.746v6.92h-6.746zm8.004 0h6.748v6.92h-6.748zm8.287 0h6.75v6.92h-6.75zm8.07 0h6.748v6.92h-6.748zm8.291 0h6.744v6.92h-6.744zm8.002 0h6.748v6.92h-6.748zm-48.945 8.778h6.75v6.919h-6.75zm8.291 0h6.746v6.919h-6.746zm8.004 0h6.748v6.919h-6.748zm8.287 0h6.75v6.919h-6.75zm8.07 0h6.748v6.919h-6.748zm8.291 0h6.744v6.919h-6.744zm8.002 0h6.748v6.919h-6.748z"/><path d="M905.975 151.301h6.75v6.919h-6.75zm8.291 0h6.746v6.919h-6.746zm8.004 0h6.748v6.919h-6.748zm8.287 0h6.75v6.919h-6.75zm8.07 0h6.748v6.919h-6.748zm8.291 0h6.744v6.919h-6.744zm8.002 0h6.748v6.919h-6.748zm-48.945 8.523h6.75v6.92h-6.75zm8.291 0h6.746v6.92h-6.746zm8.004 0h6.748v6.92h-6.748zm8.287 0h6.75v6.92h-6.75zm8.07 0h6.748v6.92h-6.748zm8.291 0h6.744v6.92h-6.744zm8.002 0h6.748v6.92h-6.748zm-48.945 8.932h6.75v6.92h-6.75zm8.291 0h6.746v6.92h-6.746zm8.004 0h6.748v6.92h-6.748zm8.287 0h6.75v6.92h-6.75zm8.07 0h6.748v6.92h-6.748zm8.291 0h6.744v6.92h-6.744zm8.002 0h6.748v6.92h-6.748z"/><path d="M905.975 168.756h6.75v6.92h-6.75zm8.291 0h6.746v6.92h-6.746zm8.004 0h6.748v6.92h-6.748zm8.287 0h6.75v6.92h-6.75zm8.07 0h6.748v6.92h-6.748zm8.291 0h6.744v6.92h-6.744zm8.002 0h6.748v6.92h-6.748zm-48.945 8.585h6.75v6.922h-6.75zm8.291 0h6.746v6.922h-6.746zm8.004 0h6.748v6.922h-6.748zm8.287 0h6.75v6.922h-6.75zm8.07 0h6.748v6.922h-6.748zm8.291 0h6.744v6.922h-6.744zm8.002 0h6.748v6.922h-6.748zm-48.945 8.778h6.75v6.92h-6.75zm8.291 0h6.746v6.92h-6.746zm8.004 0h6.748v6.92h-6.748zm8.287 0h6.75v6.92h-6.75zm8.07 0h6.748v6.92h-6.748zm8.291 0h6.744v6.92h-6.744zm8.002 0h6.748v6.92h-6.748z"/><path d="M905.975 186.119h6.75v6.92h-6.75zm8.291 0h6.746v6.92h-6.746zm8.004 0h6.748v6.92h-6.748zm8.287 0h6.75v6.92h-6.75zm8.07 0h6.748v6.92h-6.748zm8.291 0h6.744v6.92h-6.744zm8.002 0h6.748v6.92h-6.748zm-48.945 8.525h6.75v6.919h-6.75zm8.291 0h6.746v6.919h-6.746zm8.004 0h6.748v6.919h-6.748zm8.287 0h6.75v6.919h-6.75zm8.07 0h6.748v6.919h-6.748zm8.291 0h6.744v6.919h-6.744zm8.002 0h6.748v6.919h-6.748z"/></g><path fill="#A5A7AA" d="M910.512 5.596h46.199v54.792h-46.199z"/><g fill="#FFF"><path d="M912.926 7.492h5.012v5.14h-5.012zm12.1 0h5.012v5.14h-5.012zm12.15 0h5.01v5.14h-5.01zm12.098 0h5.012v5.14h-5.012z"/><path d="M912.926 7.492h5.012v5.14h-5.012zm12.1 0h5.012v5.14h-5.012zm12.15 0h5.01v5.14h-5.01zm12.098 0h5.012v5.14h-5.012zm-36.348 6.377h5.012v5.14h-5.012zm12.1 0h5.012v5.14h-5.012zm12.15 0h5.01v5.14h-5.01zm12.098 0h5.012v5.14h-5.012zm-36.348 6.517h5.012v5.139h-5.012zm12.1 0h5.012v5.139h-5.012zm12.15 0h5.01v5.139h-5.01zm12.098 0h5.012v5.139h-5.012z"/><path d="M912.926 20.386h5.012v5.139h-5.012zm12.1 0h5.012v5.139h-5.012zm12.15 0h5.01v5.139h-5.01zm12.098 0h5.012v5.139h-5.012zm-36.348 6.329h5.012v5.141h-5.012zm12.1 0h5.012v5.141h-5.012zm12.15 0h5.01v5.141h-5.01zm12.098 0h5.012v5.141h-5.012zm-36.348 6.635h5.012v5.137h-5.012zm12.1 0h5.012v5.137h-5.012zm12.15 0h5.01v5.137h-5.01zm12.098 0h5.012v5.137h-5.012z"/><path d="M912.926 33.35h5.012v5.137h-5.012zm12.1 0h5.012v5.137h-5.012zm12.15 0h5.01v5.137h-5.01zm12.098 0h5.012v5.137h-5.012zm-36.348 6.376h5.012v5.14h-5.012zm12.1 0h5.012v5.14h-5.012zm12.15 0h5.01v5.14h-5.01zm12.098 0h5.012v5.14h-5.012zm-36.348 6.517h5.012v5.141h-5.012zm12.1 0h5.012v5.141h-5.012zm12.15 0h5.01v5.141h-5.01zm12.098 0h5.012v5.141h-5.012z"/><path d="M912.926 46.243h5.012v5.141h-5.012zm12.1 0h5.012v5.141h-5.012zm12.15 0h5.01v5.141h-5.01zm12.098 0h5.012v5.141h-5.012zm-36.348 6.333h5.012v5.137h-5.012zm12.1 0h5.012v5.137h-5.012zm12.15 0h5.01v5.137h-5.01zm12.098 0h5.012v5.137h-5.012z"/></g><path fill="#808083" d="M888.782 210.955h89.666v18.638h-89.666z"/><path fill="#A5A7AA" d="M979.448 103.171h44.408v128.424h-44.408z"/><g fill="#FFF"><path d="M982.665 106.835h4.725v9.982h-4.725zm5.806 0h4.725v9.982h-4.725zm5.606 0h4.723v9.982h-4.723zm5.804 0h4.723v9.982h-4.723zm5.649 0h4.727v9.982h-4.727zm5.804 0h4.723v9.982h-4.723zm5.606 0h4.725v9.982h-4.725z"/><path d="M982.665 106.835h4.725v9.982h-4.725zm5.806 0h4.725v9.982h-4.725zm5.606 0h4.723v9.982h-4.723zm5.804 0h4.723v9.982h-4.723zm5.649 0h4.727v9.982h-4.727zm5.804 0h4.723v9.982h-4.723zm5.606 0h4.725v9.982h-4.725zm-34.275 12.296h4.725v9.983h-4.725zm5.806 0h4.725v9.983h-4.725zm5.606 0h4.723v9.983h-4.723zm5.804 0h4.723v9.983h-4.723zm5.649 0h4.727v9.983h-4.727zm5.804 0h4.723v9.983h-4.723zm5.606 0h4.725v9.983h-4.725zm-34.275 12.883h4.725v9.98h-4.725zm5.806 0h4.725v9.98h-4.725zm5.606 0h4.723v9.98h-4.723zm5.804 0h4.723v9.98h-4.723zm5.649 0h4.727v9.98h-4.727zm5.804 0h4.723v9.98h-4.723zm5.606 0h4.725v9.98h-4.725z"/><path d="M982.665 132.014h4.725v9.98h-4.725zm5.806 0h4.725v9.98h-4.725zm5.606 0h4.723v9.98h-4.723zm5.804 0h4.723v9.98h-4.723zm5.649 0h4.727v9.98h-4.727zm5.804 0h4.723v9.98h-4.723zm5.606 0h4.725v9.98h-4.725zm-34.275 12.384h4.725v9.982h-4.725zm5.806 0h4.725v9.982h-4.725zm5.606 0h4.723v9.982h-4.723zm5.804 0h4.723v9.982h-4.723zm5.649 0h4.727v9.982h-4.727zm5.804 0h4.723v9.982h-4.723zm5.606 0h4.725v9.982h-4.725zm-34.275 12.659h4.725v9.984h-4.725zm5.806 0h4.725v9.984h-4.725zm5.606 0h4.723v9.984h-4.723zm5.804 0h4.723v9.984h-4.723zm5.649 0h4.727v9.984h-4.727zm5.804 0h4.723v9.984h-4.723zm5.606 0h4.725v9.984h-4.725z"/><path d="M982.665 157.057h4.725v9.984h-4.725zm5.806 0h4.725v9.984h-4.725zm5.606 0h4.723v9.984h-4.723zm5.804 0h4.723v9.984h-4.723zm5.649 0h4.727v9.984h-4.727zm5.804 0h4.723v9.984h-4.723zm5.606 0h4.725v9.984h-4.725zm-34.275 12.297h4.725v9.982h-4.725zm5.806 0h4.725v9.982h-4.725zm5.606 0h4.723v9.982h-4.723zm5.804 0h4.723v9.982h-4.723zm5.649 0h4.727v9.982h-4.727zm5.804 0h4.723v9.982h-4.723zm5.606 0h4.725v9.982h-4.725zm-34.275 12.475h4.725v9.983h-4.725zm5.806 0h4.725v9.983h-4.725zm5.606 0h4.723v9.983h-4.723zm5.804 0h4.723v9.983h-4.723zm5.649 0h4.727v9.983h-4.727zm5.804 0h4.723v9.983h-4.723zm5.606 0h4.725v9.983h-4.725z"/><path d="M982.665 181.829h4.725v9.983h-4.725zm5.806 0h4.725v9.983h-4.725zm5.606 0h4.723v9.983h-4.723zm5.804 0h4.723v9.983h-4.723zm5.649 0h4.727v9.983h-4.727zm5.804 0h4.723v9.983h-4.723zm5.606 0h4.725v9.983h-4.725zm-34.275 12.389h4.725v9.979h-4.725zm5.806 0h4.725v9.979h-4.725zm5.606 0h4.723v9.979h-4.723zm5.804 0h4.723v9.979h-4.723zm5.649 0h4.727v9.979h-4.727zm5.804 0h4.723v9.979h-4.723zm5.606 0h4.725v9.979h-4.725z"/></g><path fill="#808083" d="M982.51-2.551h36.607v105.874H982.51z"/><g fill="#FFF"><path d="M985.161 5.056h3.896v5.199h-3.896zm4.787 0h3.895v5.199h-3.895zm4.623 0h3.893v5.199h-3.893zm4.781 0h3.896v5.199h-3.896zm4.658 0h3.896v5.199h-3.896zm4.787 0h3.893v5.199h-3.893zm4.62 0h3.896v5.199h-3.896z"/><path d="M985.161 5.056h3.896v5.199h-3.896zm4.787 0h3.895v5.199h-3.895zm4.623 0h3.893v5.199h-3.893zm4.781 0h3.896v5.199h-3.896zm4.658 0h3.896v5.199h-3.896zm4.787 0h3.893v5.199h-3.893zm4.62 0h3.896v5.199h-3.896zm-28.256 6.402h3.896v5.202h-3.896zm4.787 0h3.895v5.202h-3.895zm4.623 0h3.893v5.202h-3.893zm4.781 0h3.896v5.202h-3.896zm4.658 0h3.896v5.202h-3.896zm4.787 0h3.893v5.202h-3.893zm4.62 0h3.896v5.202h-3.896zm-28.256 6.714h3.896v5.199h-3.896zm4.787 0h3.895v5.199h-3.895zm4.623 0h3.893v5.199h-3.893zm4.781 0h3.896v5.199h-3.896zm4.658 0h3.896v5.199h-3.896zm4.787 0h3.893v5.199h-3.893zm4.62 0h3.896v5.199h-3.896z"/><path d="M985.161 18.172h3.896v5.199h-3.896zm4.787 0h3.895v5.199h-3.895zm4.623 0h3.893v5.199h-3.893zm4.781 0h3.896v5.199h-3.896zm4.658 0h3.896v5.199h-3.896zm4.787 0h3.893v5.199h-3.893zm4.62 0h3.896v5.199h-3.896zm-28.256 6.453h3.896v5.2h-3.896zm4.787 0h3.895v5.2h-3.895zm4.623 0h3.893v5.2h-3.893zm4.781 0h3.896v5.2h-3.896zm4.658 0h3.896v5.2h-3.896zm4.787 0h3.893v5.2h-3.893zm4.62 0h3.896v5.2h-3.896zm-28.256 6.593h3.896v5.201h-3.896zm4.787 0h3.895v5.201h-3.895zm4.623 0h3.893v5.201h-3.893zm4.781 0h3.896v5.201h-3.896zm4.658 0h3.896v5.201h-3.896zm4.787 0h3.893v5.201h-3.893zm4.62 0h3.896v5.201h-3.896z"/><path d="M985.161 31.218h3.896v5.201h-3.896zm4.787 0h3.895v5.201h-3.895zm4.623 0h3.893v5.201h-3.893zm4.781 0h3.896v5.201h-3.896zm4.658 0h3.896v5.201h-3.896zm4.787 0h3.893v5.201h-3.893zm4.62 0h3.896v5.201h-3.896zm-28.256 6.406h3.896v5.2h-3.896zm4.787 0h3.895v5.2h-3.895zm4.623 0h3.893v5.2h-3.893zm4.781 0h3.896v5.2h-3.896zm4.658 0h3.896v5.2h-3.896zm4.787 0h3.893v5.2h-3.893zm4.62 0h3.896v5.2h-3.896zm-28.256 6.5h3.896v5.2h-3.896zm4.787 0h3.895v5.2h-3.895zm4.623 0h3.893v5.2h-3.893zm4.781 0h3.896v5.2h-3.896zm4.658 0h3.896v5.2h-3.896zm4.787 0h3.893v5.2h-3.893zm4.62 0h3.896v5.2h-3.896z"/><path d="M985.161 44.124h3.896v5.2h-3.896zm4.787 0h3.895v5.2h-3.895zm4.623 0h3.893v5.2h-3.893zm4.781 0h3.896v5.2h-3.896zm4.658 0h3.896v5.2h-3.896zm4.787 0h3.893v5.2h-3.893zm4.62 0h3.896v5.2h-3.896zm-28.256 6.452h3.896v5.2h-3.896zm4.787 0h3.895v5.2h-3.895zm4.623 0h3.893v5.2h-3.893zm4.781 0h3.896v5.2h-3.896zm4.658 0h3.896v5.2h-3.896zm4.787 0h3.893v5.2h-3.893zm4.62 0h3.896v5.2h-3.896zm-28.256 6.151h3.896v5.201h-3.896zm4.787 0h3.895v5.201h-3.895zm4.623 0h3.893v5.201h-3.893zm4.781 0h3.896v5.201h-3.896zm4.658 0h3.896v5.201h-3.896zm4.787 0h3.893v5.201h-3.893zm4.62 0h3.896v5.201h-3.896z"/><path d="M985.161 56.727h3.896v5.201h-3.896zm4.787 0h3.895v5.201h-3.895zm4.623 0h3.893v5.201h-3.893zm4.781 0h3.896v5.201h-3.896zm4.658 0h3.896v5.201h-3.896zm4.787 0h3.893v5.201h-3.893zm4.62 0h3.896v5.201h-3.896zm-28.256 6.404h3.896v5.202h-3.896zm4.787 0h3.895v5.202h-3.895zm4.623 0h3.893v5.202h-3.893zm4.781 0h3.896v5.202h-3.896zm4.658 0h3.896v5.202h-3.896zm4.787 0h3.893v5.202h-3.893zm4.62 0h3.896v5.202h-3.896zm-28.256 6.713h3.896v5.2h-3.896zm4.787 0h3.895v5.2h-3.895zm4.623 0h3.893v5.2h-3.893zm4.781 0h3.896v5.2h-3.896zm4.658 0h3.896v5.2h-3.896zm4.787 0h3.893v5.2h-3.893zm4.62 0h3.896v5.2h-3.896z"/><path d="M985.161 69.844h3.896v5.2h-3.896zm4.787 0h3.895v5.2h-3.895zm4.623 0h3.893v5.2h-3.893zm4.781 0h3.896v5.2h-3.896zm4.658 0h3.896v5.2h-3.896zm4.787 0h3.893v5.2h-3.893zm4.62 0h3.896v5.2h-3.896zm-28.256 6.452h3.896v5.2h-3.896zm4.787 0h3.895v5.2h-3.895zm4.623 0h3.893v5.2h-3.893zm4.781 0h3.896v5.2h-3.896zm4.658 0h3.896v5.2h-3.896zm4.787 0h3.893v5.2h-3.893zm4.62 0h3.896v5.2h-3.896zm-28.256 6.596h3.896v5.2h-3.896zm4.787 0h3.895v5.2h-3.895zm4.623 0h3.893v5.2h-3.893zm4.781 0h3.896v5.2h-3.896zm4.658 0h3.896v5.2h-3.896zm4.787 0h3.893v5.2h-3.893zm4.62 0h3.896v5.2h-3.896z"/><path d="M985.161 82.892h3.896v5.2h-3.896zm4.787 0h3.895v5.2h-3.895zm4.623 0h3.893v5.2h-3.893zm4.781 0h3.896v5.2h-3.896zm4.658 0h3.896v5.2h-3.896zm4.787 0h3.893v5.2h-3.893zm4.62 0h3.896v5.2h-3.896zm-28.256 6.404h3.896v5.199h-3.896zm4.787 0h3.895v5.199h-3.895zm4.623 0h3.893v5.199h-3.893zm4.781 0h3.896v5.199h-3.896zm4.658 0h3.896v5.199h-3.896zm4.787 0h3.893v5.199h-3.893zm4.62 0h3.896v5.199h-3.896zm-28.256 6.501h3.896v5.199h-3.896zm4.787 0h3.895v5.199h-3.895zm4.623 0h3.893v5.199h-3.893zm4.781 0h3.896v5.199h-3.896zm4.658 0h3.896v5.199h-3.896zm4.787 0h3.893v5.199h-3.893zm4.62 0h3.896v5.199h-3.896z"/><path d="M985.161 95.797h3.896v5.199h-3.896zm4.787 0h3.895v5.199h-3.895zm4.623 0h3.893v5.199h-3.893zm4.781 0h3.896v5.199h-3.896zm4.658 0h3.896v5.199h-3.896zm4.787 0h3.893v5.199h-3.893zm4.62 0h3.896v5.199h-3.896z"/></g><path fill="#A5A7AA" d="M1027.223 139.248h44.406v93.348h-44.406z"/><g fill="#FFF"><path d="M1030.44 145.953h4.723v8.088h-4.723zm5.803 0h4.725v8.088h-4.725zm5.605 0h4.725v8.088h-4.725zm5.807 0h4.721v8.088h-4.721zm5.646 0h4.727v8.088h-4.727zm5.805 0h4.727v8.088h-4.727zm5.607 0h4.723v8.088h-4.723z"/><path d="M1030.44 145.953h4.723v8.088h-4.723zm5.803 0h4.725v8.088h-4.725zm5.605 0h4.725v8.088h-4.725zm5.807 0h4.721v8.088h-4.721zm5.646 0h4.727v8.088h-4.727zm5.805 0h4.727v8.088h-4.727zm5.607 0h4.723v8.088h-4.723zm-34.273 9.961h4.723V164h-4.723zm5.803 0h4.725V164h-4.725zm5.605 0h4.725V164h-4.725zm5.807 0h4.721V164h-4.721zm5.646 0h4.727V164h-4.727zm5.805 0h4.727V164h-4.727zm5.607 0h4.723V164h-4.723zm-34.273 10.433h4.723v8.085h-4.723zm5.803 0h4.725v8.085h-4.725zm5.605 0h4.725v8.085h-4.725zm5.807 0h4.721v8.085h-4.721zm5.646 0h4.727v8.085h-4.727zm5.805 0h4.727v8.085h-4.727zm5.607 0h4.723v8.085h-4.723z"/><path d="M1030.44 166.347h4.723v8.085h-4.723zm5.803 0h4.725v8.085h-4.725zm5.605 0h4.725v8.085h-4.725zm5.807 0h4.721v8.085h-4.721zm5.646 0h4.727v8.085h-4.727zm5.805 0h4.727v8.085h-4.727zm5.607 0h4.723v8.085h-4.723zm-34.273 10.035h4.723v8.083h-4.723zm5.803 0h4.725v8.083h-4.725zm5.605 0h4.725v8.083h-4.725zm5.807 0h4.721v8.083h-4.721zm5.646 0h4.727v8.083h-4.727zm5.805 0h4.727v8.083h-4.727zm5.607 0h4.723v8.083h-4.723zm-34.273 10.252h4.723v8.085h-4.723zm5.803 0h4.725v8.085h-4.725zm5.605 0h4.725v8.085h-4.725zm5.807 0h4.721v8.085h-4.721zm5.646 0h4.727v8.085h-4.727zm5.805 0h4.727v8.085h-4.727zm5.607 0h4.723v8.085h-4.723z"/><path d="M1030.44 186.634h4.723v8.085h-4.723zm5.803 0h4.725v8.085h-4.725zm5.605 0h4.725v8.085h-4.725zm5.807 0h4.721v8.085h-4.721zm5.646 0h4.727v8.085h-4.727zm5.805 0h4.727v8.085h-4.727zm5.607 0h4.723v8.085h-4.723zm-34.273 9.956h4.723v8.088h-4.723zm5.803 0h4.725v8.088h-4.725zm5.605 0h4.725v8.088h-4.725zm5.807 0h4.721v8.088h-4.721zm5.646 0h4.727v8.088h-4.727zm5.805 0h4.727v8.088h-4.727zm5.607 0h4.723v8.088h-4.723zm-34.273 10.105h4.723v8.083h-4.723zm5.803 0h4.725v8.083h-4.725zm5.605 0h4.725v8.083h-4.725zm5.807 0h4.721v8.083h-4.721zm5.646 0h4.727v8.083h-4.727zm5.805 0h4.727v8.083h-4.727zm5.607 0h4.723v8.083h-4.723z"/><path d="M1030.44 206.695h4.723v8.083h-4.723zm5.803 0h4.725v8.083h-4.725zm5.605 0h4.725v8.083h-4.725zm5.807 0h4.721v8.083h-4.721zm5.646 0h4.727v8.083h-4.727zm5.805 0h4.727v8.083h-4.727zm5.607 0h4.723v8.083h-4.723zm-34.273 10.031h4.723v8.082h-4.723zm5.803 0h4.725v8.082h-4.725zm5.605 0h4.725v8.082h-4.725zm5.807 0h4.721v8.082h-4.721zm5.646 0h4.727v8.082h-4.727zm5.805 0h4.727v8.082h-4.727zm5.607 0h4.723v8.082h-4.723z"/></g><path fill="#808083" d="M760.102 211.055h128.135v29.174H760.102z"/><path fill="#FFF" d="M762.417 213.751h15.418v4.059h-15.418zm0 4.981h15.418v4.057h-15.418zm0 4.85h15.418v4.059h-15.418zm105.929-8.831h15.418v4.059h-15.418zm0 4.981h15.418v4.057h-15.418zm0 4.85h15.418v4.059h-15.418z"/><path fill="#A5A7AA" d="M823.159 22.869h43.904v188.516h-43.904z"/><path fill="#A5A7AA" d="M779.573 22.869h46.465v188.516h-46.465z"/><path fill="#FFF" d="M791.495 32.52h5.758v185.466h-5.758zm11.511 0h5.762v185.466h-5.762zm11.516 0h5.758v185.466h-5.758zm11.516 0h5.758v185.466h-5.758zm11.515 0h5.754v185.466h-5.754zm11.514 0h5.758v185.466h-5.758zm73.449 176.665h10.471v20.542h-10.471zm11.729 0h10.473v20.542h-10.473z"/><path fill="#CDAA98" d="M613.384 61.82h63.412V231.3h-63.412z"/><g fill="#FFF"><path d="M617.976 66.287h6.75v6.923h-6.75zm8.289 0h6.748v6.923h-6.748zm8.006 0h6.748v6.923h-6.748zm8.287 0h6.75v6.923h-6.75zm8.07 0h6.748v6.923h-6.748zm8.289 0h6.746v6.923h-6.746zm8.004 0h6.748v6.923h-6.748z"/><path d="M617.976 66.287h6.75v6.923h-6.75zm8.289 0h6.748v6.923h-6.748zm8.006 0h6.748v6.923h-6.748zm8.287 0h6.75v6.923h-6.75zm8.07 0h6.748v6.923h-6.748zm8.289 0h6.746v6.923h-6.746zm8.004 0h6.748v6.923h-6.748zm-48.945 8.588h6.75v6.92h-6.75zm8.289 0h6.748v6.92h-6.748zm8.006 0h6.748v6.92h-6.748zm8.287 0h6.75v6.92h-6.75zm8.07 0h6.748v6.92h-6.748zm8.289 0h6.746v6.92h-6.746zm8.004 0h6.748v6.92h-6.748zm-48.945 8.776h6.75v6.919h-6.75zm8.289 0h6.748v6.919h-6.748zm8.006 0h6.748v6.919h-6.748zm8.287 0h6.75v6.919h-6.75zm8.07 0h6.748v6.919h-6.748zm8.289 0h6.746v6.919h-6.746zm8.004 0h6.748v6.919h-6.748z"/><path d="M617.976 83.651h6.75v6.919h-6.75zm8.289 0h6.748v6.919h-6.748zm8.006 0h6.748v6.919h-6.748zm8.287 0h6.75v6.919h-6.75zm8.07 0h6.748v6.919h-6.748zm8.289 0h6.746v6.919h-6.746zm8.004 0h6.748v6.919h-6.748zm-48.945 8.525h6.75v6.92h-6.75zm8.289 0h6.748v6.92h-6.748zm8.006 0h6.748v6.92h-6.748zm8.287 0h6.75v6.92h-6.75zm8.07 0h6.748v6.92h-6.748zm8.289 0h6.746v6.92h-6.746zm8.004 0h6.748v6.92h-6.748zm-48.945 8.929h6.75v6.922h-6.75zm8.289 0h6.748v6.922h-6.748zm8.006 0h6.748v6.922h-6.748zm8.287 0h6.75v6.922h-6.75zm8.07 0h6.748v6.922h-6.748zm8.289 0h6.746v6.922h-6.746zm8.004 0h6.748v6.922h-6.748z"/><path d="M617.976 101.105h6.75v6.922h-6.75zm8.289 0h6.748v6.922h-6.748zm8.006 0h6.748v6.922h-6.748zm8.287 0h6.75v6.922h-6.75zm8.07 0h6.748v6.922h-6.748zm8.289 0h6.746v6.922h-6.746zm8.004 0h6.748v6.922h-6.748zm-48.945 8.588h6.75v6.922h-6.75zm8.289 0h6.748v6.922h-6.748zm8.006 0h6.748v6.922h-6.748zm8.287 0h6.75v6.922h-6.75zm8.07 0h6.748v6.922h-6.748zm8.289 0h6.746v6.922h-6.746zm8.004 0h6.748v6.922h-6.748zm-48.945 8.777h6.75v6.921h-6.75zm8.289 0h6.748v6.921h-6.748zm8.006 0h6.748v6.921h-6.748zm8.287 0h6.75v6.921h-6.75zm8.07 0h6.748v6.921h-6.748zm8.289 0h6.746v6.921h-6.746zm8.004 0h6.748v6.921h-6.748z"/><path d="M617.976 118.47h6.75v6.921h-6.75zm8.289 0h6.748v6.921h-6.748zm8.006 0h6.748v6.921h-6.748zm8.287 0h6.75v6.921h-6.75zm8.07 0h6.748v6.921h-6.748zm8.289 0h6.746v6.921h-6.746zm8.004 0h6.748v6.921h-6.748zm-48.945 8.526h6.75v6.919h-6.75zm8.289 0h6.748v6.919h-6.748zm8.006 0h6.748v6.919h-6.748zm8.287 0h6.75v6.919h-6.75zm8.07 0h6.748v6.919h-6.748zm8.289 0h6.746v6.919h-6.746zm8.004 0h6.748v6.919h-6.748zm-48.945 8.647h6.75v6.92h-6.75zm8.289 0h6.748v6.92h-6.748zm8.006 0h6.748v6.92h-6.748zm8.287 0h6.75v6.92h-6.75zm8.07 0h6.748v6.92h-6.748zm8.289 0h6.746v6.92h-6.746zm8.004 0h6.748v6.92h-6.748z"/><path d="M617.976 135.643h6.75v6.92h-6.75zm8.289 0h6.748v6.92h-6.748zm8.006 0h6.748v6.92h-6.748zm8.287 0h6.75v6.92h-6.75zm8.07 0h6.748v6.92h-6.748zm8.289 0h6.746v6.92h-6.746zm8.004 0h6.748v6.92h-6.748zm-48.945 8.587h6.75v6.92h-6.75zm8.289 0h6.748v6.92h-6.748zm8.006 0h6.748v6.92h-6.748zm8.287 0h6.75v6.92h-6.75zm8.07 0h6.748v6.92h-6.748zm8.289 0h6.746v6.92h-6.746zm8.004 0h6.748v6.92h-6.748zm-48.945 8.778h6.75v6.919h-6.75zm8.289 0h6.748v6.919h-6.748zm8.006 0h6.748v6.919h-6.748zm8.287 0h6.75v6.919h-6.75zm8.07 0h6.748v6.919h-6.748zm8.289 0h6.746v6.919h-6.746zm8.004 0h6.748v6.919h-6.748z"/><path d="M617.976 153.008h6.75v6.919h-6.75zm8.289 0h6.748v6.919h-6.748zm8.006 0h6.748v6.919h-6.748zm8.287 0h6.75v6.919h-6.75zm8.07 0h6.748v6.919h-6.748zm8.289 0h6.746v6.919h-6.746zm8.004 0h6.748v6.919h-6.748zm-48.945 8.523h6.75v6.92h-6.75zm8.289 0h6.748v6.92h-6.748zm8.006 0h6.748v6.92h-6.748zm8.287 0h6.75v6.92h-6.75zm8.07 0h6.748v6.92h-6.748zm8.289 0h6.746v6.92h-6.746zm8.004 0h6.748v6.92h-6.748zm-48.945 8.932h6.75v6.92h-6.75zm8.289 0h6.748v6.92h-6.748zm8.006 0h6.748v6.92h-6.748zm8.287 0h6.75v6.92h-6.75zm8.07 0h6.748v6.92h-6.748zm8.289 0h6.746v6.92h-6.746zm8.004 0h6.748v6.92h-6.748z"/><path d="M617.976 170.463h6.75v6.92h-6.75zm8.289 0h6.748v6.92h-6.748zm8.006 0h6.748v6.92h-6.748zm8.287 0h6.75v6.92h-6.75zm8.07 0h6.748v6.92h-6.748zm8.289 0h6.746v6.92h-6.746zm8.004 0h6.748v6.92h-6.748zm-48.945 8.585h6.75v6.922h-6.75zm8.289 0h6.748v6.922h-6.748zm8.006 0h6.748v6.922h-6.748zm8.287 0h6.75v6.922h-6.75zm8.07 0h6.748v6.922h-6.748zm8.289 0h6.746v6.922h-6.746zm8.004 0h6.748v6.922h-6.748zm-48.945 8.778h6.75v6.92h-6.75zm8.289 0h6.748v6.92h-6.748zm8.006 0h6.748v6.92h-6.748zm8.287 0h6.75v6.92h-6.75zm8.07 0h6.748v6.92h-6.748zm8.289 0h6.746v6.92h-6.746zm8.004 0h6.748v6.92h-6.748z"/><path d="M617.976 187.826h6.75v6.92h-6.75zm8.289 0h6.748v6.92h-6.748zm8.006 0h6.748v6.92h-6.748zm8.287 0h6.75v6.92h-6.75zm8.07 0h6.748v6.92h-6.748zm8.289 0h6.746v6.92h-6.746zm8.004 0h6.748v6.92h-6.748zm-48.945 8.525h6.75v6.919h-6.75zm8.289 0h6.748v6.919h-6.748zm8.006 0h6.748v6.919h-6.748zm8.287 0h6.75v6.919h-6.75zm8.07 0h6.748v6.919h-6.748zm8.289 0h6.746v6.919h-6.746zm8.004 0h6.748v6.919h-6.748z"/></g><path fill="#C39883" d="M622.513 7.303h46.199v54.792h-46.199z"/><g fill="#FFF"><path d="M624.927 9.199h5.01v5.14h-5.01zm12.1 0h5.012v5.14h-5.012zm12.148 0h5.012v5.14h-5.012zm12.1 0h5.01v5.14h-5.01z"/><path d="M624.927 9.199h5.01v5.14h-5.01zm12.1 0h5.012v5.14h-5.012zm12.148 0h5.012v5.14h-5.012zm12.1 0h5.01v5.14h-5.01zm-36.348 6.377h5.01v5.14h-5.01zm12.1 0h5.012v5.14h-5.012zm12.148 0h5.012v5.14h-5.012zm12.1 0h5.01v5.14h-5.01zm-36.348 6.517h5.01v5.139h-5.01zm12.1 0h5.012v5.139h-5.012zm12.148 0h5.012v5.139h-5.012zm12.1 0h5.01v5.139h-5.01z"/><path d="M624.927 22.093h5.01v5.139h-5.01zm12.1 0h5.012v5.139h-5.012zm12.148 0h5.012v5.139h-5.012zm12.1 0h5.01v5.139h-5.01zm-36.348 6.329h5.01v5.141h-5.01zm12.1 0h5.012v5.141h-5.012zm12.148 0h5.012v5.141h-5.012zm12.1 0h5.01v5.141h-5.01zm-36.348 6.635h5.01v5.137h-5.01zm12.1 0h5.012v5.137h-5.012zm12.148 0h5.012v5.137h-5.012zm12.1 0h5.01v5.137h-5.01z"/><path d="M624.927 35.057h5.01v5.137h-5.01zm12.1 0h5.012v5.137h-5.012zm12.148 0h5.012v5.137h-5.012zm12.1 0h5.01v5.137h-5.01zm-36.348 6.376h5.01v5.14h-5.01zm12.1 0h5.012v5.14h-5.012zm12.148 0h5.012v5.14h-5.012zm12.1 0h5.01v5.14h-5.01zm-36.348 6.517h5.01v5.141h-5.01zm12.1 0h5.012v5.141h-5.012zm12.148 0h5.012v5.141h-5.012zm12.1 0h5.01v5.141h-5.01z"/><path d="M624.927 47.95h5.01v5.141h-5.01zm12.1 0h5.012v5.141h-5.012zm12.148 0h5.012v5.141h-5.012zm12.1 0h5.01v5.141h-5.01zm-36.348 6.333h5.01v5.137h-5.01zm12.1 0h5.012v5.137h-5.012zm12.148 0h5.012v5.137h-5.012zm12.1 0h5.01v5.137h-5.01z"/></g><path fill="#C39883" d="M600.782 210.662h89.667V229.3h-89.667z"/><path fill="#FFF" d="M634.515 210.892h10.473v20.542h-10.473zm11.731 0h10.471v20.542h-10.471z"/><path fill="#B7B8B8" d="M1076.334 16.06h62.891v219.536h-62.891z"/><path fill="#A5A7AA" d="M1143.668 134.191h56.168v102.462h-56.168z"/><path d="M1147.176 138.014h4.449v96.347h-4.449zm8.897 0h4.451v96.347h-4.451zm8.898 0h4.449v96.347h-4.449zm8.901 0h4.447v96.347h-4.447zm8.892 0h4.451v96.347h-4.451zm8.901 0h4.447v96.347h-4.447z" fill="#FFF"/><path fill="#808083" d="M1147.176 127.369h48.936v6.822h-48.936z"/><g fill="#FFF"><path d="M1079.625 53.323h3.283v8.23h-3.283zm4.036 0h3.285v8.23h-3.285zm3.898 0h3.285v8.23h-3.285zm4.037 0h3.283v8.23h-3.283zm3.93 0h3.285v8.23h-3.285zm4.035 0h3.285v8.23h-3.285zm3.897 0h3.285v8.23h-3.285z"/><path d="M1079.625 53.323h3.283v8.23h-3.283zm4.036 0h3.285v8.23h-3.285zm3.898 0h3.285v8.23h-3.285zm4.037 0h3.283v8.23h-3.283zm3.93 0h3.285v8.23h-3.285zm4.035 0h3.285v8.23h-3.285zm3.897 0h3.285v8.23h-3.285zm-23.833 10.138h3.283v8.229h-3.283zm4.036 0h3.285v8.229h-3.285zm3.898 0h3.285v8.229h-3.285zm4.037 0h3.283v8.229h-3.283zm3.93 0h3.285v8.229h-3.285zm4.035 0h3.285v8.229h-3.285zm3.897 0h3.285v8.229h-3.285zm-23.833 10.623h3.283v8.229h-3.283zm4.036 0h3.285v8.229h-3.285zm3.898 0h3.285v8.229h-3.285zm4.037 0h3.283v8.229h-3.283zm3.93 0h3.285v8.229h-3.285zm4.035 0h3.285v8.229h-3.285zm3.897 0h3.285v8.229h-3.285z"/><path d="M1079.625 74.084h3.283v8.229h-3.283zm4.036 0h3.285v8.229h-3.285zm3.898 0h3.285v8.229h-3.285zm4.037 0h3.283v8.229h-3.283zm3.93 0h3.285v8.229h-3.285zm4.035 0h3.285v8.229h-3.285zm3.897 0h3.285v8.229h-3.285zm-23.833 10.212h3.283v8.228h-3.283zm4.036 0h3.285v8.228h-3.285zm3.898 0h3.285v8.228h-3.285zm4.037 0h3.283v8.228h-3.283zm3.93 0h3.285v8.228h-3.285zm4.035 0h3.285v8.228h-3.285zm3.897 0h3.285v8.228h-3.285zm-23.833 10.437h3.283v8.23h-3.283zm4.036 0h3.285v8.23h-3.285zm3.898 0h3.285v8.23h-3.285zm4.037 0h3.283v8.23h-3.283zm3.93 0h3.285v8.23h-3.285zm4.035 0h3.285v8.23h-3.285zm3.897 0h3.285v8.23h-3.285z"/><path d="M1079.625 94.733h3.283v8.23h-3.283zm4.036 0h3.285v8.23h-3.285zm3.898 0h3.285v8.23h-3.285zm4.037 0h3.283v8.23h-3.283zm3.93 0h3.285v8.23h-3.285zm4.035 0h3.285v8.23h-3.285zm3.897 0h3.285v8.23h-3.285zm-23.833 10.138h3.283v8.229h-3.283zm4.036 0h3.285v8.229h-3.285zm3.898 0h3.285v8.229h-3.285zm4.037 0h3.283v8.229h-3.283zm3.93 0h3.285v8.229h-3.285zm4.035 0h3.285v8.229h-3.285zm3.897 0h3.285v8.229h-3.285zm-23.833 10.285h3.283v8.231h-3.283zm4.036 0h3.285v8.231h-3.285zm3.898 0h3.285v8.231h-3.285zm4.037 0h3.283v8.231h-3.283zm3.93 0h3.285v8.231h-3.285zm4.035 0h3.285v8.231h-3.285zm3.897 0h3.285v8.231h-3.285z"/><path d="M1079.625 115.156h3.283v8.231h-3.283zm4.036 0h3.285v8.231h-3.285zm3.898 0h3.285v8.231h-3.285zm4.037 0h3.283v8.231h-3.283zm3.93 0h3.285v8.231h-3.285zm4.035 0h3.285v8.231h-3.285zm3.897 0h3.285v8.231h-3.285zm-23.833 10.213h3.283v8.23h-3.283zm4.036 0h3.285v8.23h-3.285zm3.898 0h3.285v8.23h-3.285zm4.037 0h3.283v8.23h-3.283zm3.93 0h3.285v8.23h-3.285zm4.035 0h3.285v8.23h-3.285zm3.897 0h3.285v8.23h-3.285z"/></g><g fill="#FFF"><path d="M1107.989 53.323h3.285v8.23h-3.285zm4.037 0h3.285v8.23h-3.285zm3.894 0h3.287v8.23h-3.287zm4.036 0h3.289v8.23h-3.289zm3.931 0h3.285v8.23h-3.285zm4.035 0h3.285v8.23h-3.285zm3.899 0h3.283v8.23h-3.283z"/><path d="M1107.989 53.323h3.285v8.23h-3.285zm4.037 0h3.285v8.23h-3.285zm3.894 0h3.287v8.23h-3.287zm4.036 0h3.289v8.23h-3.289zm3.931 0h3.285v8.23h-3.285zm4.035 0h3.285v8.23h-3.285zm3.899 0h3.283v8.23h-3.283zm-23.832 10.138h3.285v8.229h-3.285zm4.037 0h3.285v8.229h-3.285zm3.894 0h3.287v8.229h-3.287zm4.036 0h3.289v8.229h-3.289zm3.931 0h3.285v8.229h-3.285zm4.035 0h3.285v8.229h-3.285zm3.899 0h3.283v8.229h-3.283zm-23.832 10.623h3.285v8.229h-3.285zm4.037 0h3.285v8.229h-3.285zm3.894 0h3.287v8.229h-3.287zm4.036 0h3.289v8.229h-3.289zm3.931 0h3.285v8.229h-3.285zm4.035 0h3.285v8.229h-3.285zm3.899 0h3.283v8.229h-3.283z"/><path d="M1107.989 74.084h3.285v8.229h-3.285zm4.037 0h3.285v8.229h-3.285zm3.894 0h3.287v8.229h-3.287zm4.036 0h3.289v8.229h-3.289zm3.931 0h3.285v8.229h-3.285zm4.035 0h3.285v8.229h-3.285zm3.899 0h3.283v8.229h-3.283zm-23.832 10.212h3.285v8.228h-3.285zm4.037 0h3.285v8.228h-3.285zm3.894 0h3.287v8.228h-3.287zm4.036 0h3.289v8.228h-3.289zm3.931 0h3.285v8.228h-3.285zm4.035 0h3.285v8.228h-3.285zm3.899 0h3.283v8.228h-3.283zm-23.832 10.437h3.285v8.23h-3.285zm4.037 0h3.285v8.23h-3.285zm3.894 0h3.287v8.23h-3.287zm4.036 0h3.289v8.23h-3.289zm3.931 0h3.285v8.23h-3.285zm4.035 0h3.285v8.23h-3.285zm3.899 0h3.283v8.23h-3.283z"/><path d="M1107.989 94.733h3.285v8.23h-3.285zm4.037 0h3.285v8.23h-3.285zm3.894 0h3.287v8.23h-3.287zm4.036 0h3.289v8.23h-3.289zm3.931 0h3.285v8.23h-3.285zm4.035 0h3.285v8.23h-3.285zm3.899 0h3.283v8.23h-3.283zm-23.832 10.138h3.285v8.229h-3.285zm4.037 0h3.285v8.229h-3.285zm3.894 0h3.287v8.229h-3.287zm4.036 0h3.289v8.229h-3.289zm3.931 0h3.285v8.229h-3.285zm4.035 0h3.285v8.229h-3.285zm3.899 0h3.283v8.229h-3.283zm-23.832 10.285h3.285v8.231h-3.285zm4.037 0h3.285v8.231h-3.285zm3.894 0h3.287v8.231h-3.287zm4.036 0h3.289v8.231h-3.289zm3.931 0h3.285v8.231h-3.285zm4.035 0h3.285v8.231h-3.285zm3.899 0h3.283v8.231h-3.283z"/><path d="M1107.989 115.156h3.285v8.231h-3.285zm4.037 0h3.285v8.231h-3.285zm3.894 0h3.287v8.231h-3.287zm4.036 0h3.289v8.231h-3.289zm3.931 0h3.285v8.231h-3.285zm4.035 0h3.285v8.231h-3.285zm3.899 0h3.283v8.231h-3.283zm-23.832 10.213h3.285v8.23h-3.285zm4.037 0h3.285v8.23h-3.285zm3.894 0h3.287v8.23h-3.287zm4.036 0h3.289v8.23h-3.289zm3.931 0h3.285v8.23h-3.285zm4.035 0h3.285v8.23h-3.285zm3.899 0h3.283v8.23h-3.283z"/></g><path fill="#FFF" d="M1079.625 30.201h55.93v2.174h-55.93zm0-2.768h55.93v2.172h-55.93zm0-2.798h55.93v2.173h-55.93zm0 19.762h55.93v2.173h-55.93zm0-2.768h55.93v2.172h-55.93zm0-2.799h55.93v2.173h-55.93zm6.831 163.229c-3.594 0-6.504 2.89-6.504 6.453v24.92h13.008v-24.92c-.001-3.564-2.915-6.453-6.504-6.453zm14.384 0c-3.594 0-6.504 2.89-6.504 6.453v24.92h13.008v-24.92c0-3.564-2.912-6.453-6.504-6.453zm14.004 0c-3.59 0-6.504 2.89-6.504 6.453v24.92h13.008v-24.92c0-3.564-2.912-6.453-6.504-6.453zm13.977 0c-3.59 0-6.504 2.89-6.504 6.453v24.92h13.008v-24.92c0-3.564-2.912-6.453-6.504-6.453zm-49.264-58.112h55.93v2.172h-55.93zm0-2.771h55.93v2.174h-55.93zm0-2.797h55.93v2.172h-55.93zm0 16.71h55.93v2.171h-55.93zm0-2.769h55.93v2.17h-55.93zm0-2.799h55.93v2.172h-55.93zm0 16.397h55.93v2.172h-55.93zm0-2.771h55.93v2.171h-55.93zm0-2.797h55.93v2.171h-55.93zm0 17.616h55.93v2.17h-55.93zm0-2.773h55.93v2.174h-55.93zm0-2.797h55.93v2.171h-55.93z"/><path fill="#808083" d="M695.05 12.354h62.89V231.89h-62.89z"/><g fill="#FFF"><path d="M698.34 49.618h3.283v8.23h-3.283zm4.035 0h3.285v8.23h-3.285zm3.901 0h3.285v8.23h-3.285zm4.035 0h3.285v8.23h-3.285zm3.93 0h3.285v8.23h-3.285zm4.035 0h3.285v8.23h-3.285zm3.896 0h3.285v8.23h-3.285z"/><path d="M698.34 49.618h3.283v8.23h-3.283zm4.035 0h3.285v8.23h-3.285zm3.901 0h3.285v8.23h-3.285zm4.035 0h3.285v8.23h-3.285zm3.93 0h3.285v8.23h-3.285zm4.035 0h3.285v8.23h-3.285zm3.896 0h3.285v8.23h-3.285zM698.34 59.756h3.283v8.229h-3.283zm4.035 0h3.285v8.229h-3.285zm3.901 0h3.285v8.229h-3.285zm4.035 0h3.285v8.229h-3.285zm3.93 0h3.285v8.229h-3.285zm4.035 0h3.285v8.229h-3.285zm3.896 0h3.285v8.229h-3.285zM698.34 70.379h3.283v8.229h-3.283zm4.035 0h3.285v8.229h-3.285zm3.901 0h3.285v8.229h-3.285zm4.035 0h3.285v8.229h-3.285zm3.93 0h3.285v8.229h-3.285zm4.035 0h3.285v8.229h-3.285zm3.896 0h3.285v8.229h-3.285z"/><path d="M698.34 70.379h3.283v8.229h-3.283zm4.035 0h3.285v8.229h-3.285zm3.901 0h3.285v8.229h-3.285zm4.035 0h3.285v8.229h-3.285zm3.93 0h3.285v8.229h-3.285zm4.035 0h3.285v8.229h-3.285zm3.896 0h3.285v8.229h-3.285zM698.34 80.591h3.283v8.228h-3.283zm4.035 0h3.285v8.228h-3.285zm3.901 0h3.285v8.228h-3.285zm4.035 0h3.285v8.228h-3.285zm3.93 0h3.285v8.228h-3.285zm4.035 0h3.285v8.228h-3.285zm3.896 0h3.285v8.228h-3.285zM698.34 91.028h3.283v8.23h-3.283zm4.035 0h3.285v8.23h-3.285zm3.901 0h3.285v8.23h-3.285zm4.035 0h3.285v8.23h-3.285zm3.93 0h3.285v8.23h-3.285zm4.035 0h3.285v8.23h-3.285zm3.896 0h3.285v8.23h-3.285z"/><path d="M698.34 91.028h3.283v8.23h-3.283zm4.035 0h3.285v8.23h-3.285zm3.901 0h3.285v8.23h-3.285zm4.035 0h3.285v8.23h-3.285zm3.93 0h3.285v8.23h-3.285zm4.035 0h3.285v8.23h-3.285zm3.896 0h3.285v8.23h-3.285zm-23.832 10.138h3.283v8.229h-3.283zm4.035 0h3.285v8.229h-3.285zm3.901 0h3.285v8.229h-3.285zm4.035 0h3.285v8.229h-3.285zm3.93 0h3.285v8.229h-3.285zm4.035 0h3.285v8.229h-3.285zm3.896 0h3.285v8.229h-3.285zm-23.832 10.285h3.283v8.231h-3.283zm4.035 0h3.285v8.231h-3.285zm3.901 0h3.285v8.231h-3.285zm4.035 0h3.285v8.231h-3.285zm3.93 0h3.285v8.231h-3.285zm4.035 0h3.285v8.231h-3.285zm3.896 0h3.285v8.231h-3.285z"/><path d="M698.34 111.451h3.283v8.231h-3.283zm4.035 0h3.285v8.231h-3.285zm3.901 0h3.285v8.231h-3.285zm4.035 0h3.285v8.231h-3.285zm3.93 0h3.285v8.231h-3.285zm4.035 0h3.285v8.231h-3.285zm3.896 0h3.285v8.231h-3.285zm-23.832 10.213h3.283v8.23h-3.283zm4.035 0h3.285v8.23h-3.285zm3.901 0h3.285v8.23h-3.285zm4.035 0h3.285v8.23h-3.285zm3.93 0h3.285v8.23h-3.285zm4.035 0h3.285v8.23h-3.285zm3.896 0h3.285v8.23h-3.285z"/><g><path d="M726.704 49.618h3.285v8.23h-3.285zm4.037 0h3.285v8.23h-3.285zm3.894 0h3.287v8.23h-3.287zm4.035 0h3.289v8.23h-3.289zm3.932 0h3.287v8.23h-3.287zm4.035 0h3.285v8.23h-3.285zm3.899 0h3.283v8.23h-3.283z"/><path d="M726.704 49.618h3.285v8.23h-3.285zm4.037 0h3.285v8.23h-3.285zm3.894 0h3.287v8.23h-3.287zm4.035 0h3.289v8.23h-3.289zm3.932 0h3.287v8.23h-3.287zm4.035 0h3.285v8.23h-3.285zm3.899 0h3.283v8.23h-3.283zm-23.832 10.138h3.285v8.229h-3.285zm4.037 0h3.285v8.229h-3.285zm3.894 0h3.287v8.229h-3.287zm4.035 0h3.289v8.229h-3.289zm3.932 0h3.287v8.229h-3.287zm4.035 0h3.285v8.229h-3.285zm3.899 0h3.283v8.229h-3.283zm-23.832 10.623h3.285v8.229h-3.285zm4.037 0h3.285v8.229h-3.285zm3.894 0h3.287v8.229h-3.287zm4.035 0h3.289v8.229h-3.289zm3.932 0h3.287v8.229h-3.287zm4.035 0h3.285v8.229h-3.285zm3.899 0h3.283v8.229h-3.283z"/><path d="M726.704 70.379h3.285v8.229h-3.285zm4.037 0h3.285v8.229h-3.285zm3.894 0h3.287v8.229h-3.287zm4.035 0h3.289v8.229h-3.289zm3.932 0h3.287v8.229h-3.287zm4.035 0h3.285v8.229h-3.285zm3.899 0h3.283v8.229h-3.283zm-23.832 10.212h3.285v8.228h-3.285zm4.037 0h3.285v8.228h-3.285zm3.894 0h3.287v8.228h-3.287zm4.035 0h3.289v8.228h-3.289zm3.932 0h3.287v8.228h-3.287zm4.035 0h3.285v8.228h-3.285zm3.899 0h3.283v8.228h-3.283zm-23.832 10.437h3.285v8.23h-3.285zm4.037 0h3.285v8.23h-3.285zm3.894 0h3.287v8.23h-3.287zm4.035 0h3.289v8.23h-3.289zm3.932 0h3.287v8.23h-3.287zm4.035 0h3.285v8.23h-3.285zm3.899 0h3.283v8.23h-3.283z"/><path d="M726.704 91.028h3.285v8.23h-3.285zm4.037 0h3.285v8.23h-3.285zm3.894 0h3.287v8.23h-3.287zm4.035 0h3.289v8.23h-3.289zm3.932 0h3.287v8.23h-3.287zm4.035 0h3.285v8.23h-3.285zm3.899 0h3.283v8.23h-3.283zm-23.832 10.138h3.285v8.229h-3.285zm4.037 0h3.285v8.229h-3.285zm3.894 0h3.287v8.229h-3.287zm4.035 0h3.289v8.229h-3.289zm3.932 0h3.287v8.229h-3.287zm4.035 0h3.285v8.229h-3.285zm3.899 0h3.283v8.229h-3.283zm-23.832 10.285h3.285v8.231h-3.285zm4.037 0h3.285v8.231h-3.285zm3.894 0h3.287v8.231h-3.287zm4.035 0h3.289v8.231h-3.289zm3.932 0h3.287v8.231h-3.287zm4.035 0h3.285v8.231h-3.285zm3.899 0h3.283v8.231h-3.283z"/><path d="M726.704 111.451h3.285v8.231h-3.285zm4.037 0h3.285v8.231h-3.285zm3.894 0h3.287v8.231h-3.287zm4.035 0h3.289v8.231h-3.289zm3.932 0h3.287v8.231h-3.287zm4.035 0h3.285v8.231h-3.285zm3.899 0h3.283v8.231h-3.283zm-23.832 10.213h3.285v8.23h-3.285zm4.037 0h3.285v8.23h-3.285zm3.894 0h3.287v8.23h-3.287zm4.035 0h3.289v8.23h-3.289zm3.932 0h3.287v8.23h-3.287zm4.035 0h3.285v8.23h-3.285zm3.899 0h3.283v8.23h-3.283z"/></g><path d="M698.34 26.496h55.93v2.174h-55.93zm0-2.768h55.93V25.9h-55.93zm0-2.798h55.93v2.173h-55.93zm0 19.762h55.93v2.173h-55.93zm0-2.768h55.93v2.172h-55.93zm0-2.799h55.93v2.173h-55.93zm6.83 163.229c-3.594 0-6.504 2.89-6.504 6.453v24.92h13.01v-24.92c0-3.564-2.914-6.453-6.506-6.453zm14.385 0c-3.592 0-6.504 2.89-6.504 6.453v24.92h13.008v-24.92c0-3.564-2.912-6.453-6.504-6.453zm14.004 0c-3.59 0-6.504 2.89-6.504 6.453v24.92h13.008v-24.92c0-3.564-2.912-6.453-6.504-6.453zm13.979 0c-3.592 0-6.504 2.89-6.504 6.453v24.92h13.006v-24.92c0-3.564-2.913-6.453-6.502-6.453zm-49.264-58.112h55.928v2.172h-55.928zm0-2.771h55.928v2.174h-55.928zm0-2.797h55.928v2.172h-55.928zm0 16.71h55.928v2.171h-55.928zm0-2.769h55.928v2.17h-55.928zm0-2.8h55.928v2.172h-55.928zm0 16.398h55.928v2.172h-55.928zm0-2.771h55.928v2.171h-55.928zm0-2.797h55.928v2.171h-55.928zm0 17.616h55.928v2.17h-55.928zm0-2.773h55.928v2.174h-55.928zm0-2.797h55.928v2.171h-55.928z"/></g><path d="M1151.625 138.014h4.447v96.347h-4.447zm8.899 0h4.447v96.347h-4.447zm8.896 0h4.451v96.347h-4.451zm8.899 0h4.445v96.347h-4.445zm8.896 0h4.449v96.347h-4.449z" fill="#808083"/><path fill="#A5A7AA" d="M417.453 136.367h56.168v102.462h-56.168z"/><path d="M420.96 140.189h4.45v96.347h-4.45zm8.896 0h4.451v96.347h-4.451zm8.899 0h4.449v96.347h-4.449zm8.9 0h4.447v96.347h-4.447zm8.894 0h4.45v96.347h-4.45zm8.9 0h4.448v96.347h-4.448z" fill="#FFF"/><path fill="#808083" d="M420.96 129.545h48.938v6.822H420.96zM425.41 140.189h4.446v96.347h-4.446zm8.898 0h4.447v96.347h-4.447zm8.896 0h4.451v96.347h-4.451zm8.899 0h4.446v96.347h-4.446zm8.896 0h4.45v96.347h-4.45zM797.252 32.52h5.754v185.466h-5.754zm11.516 0h5.754v185.466h-5.754zm11.512 0h5.758v185.466h-5.758zm11.515 0h5.758v185.466h-5.758zm11.512 0h5.76v185.466h-5.76z"/><path fill="#919396" d="M298.471 59.51h63.412v169.48h-63.412z"/><g fill="#FFF"><path d="M303.063 63.977h6.75V70.9h-6.75zm8.291 0h6.746V70.9h-6.746zm8.004 0h6.748V70.9h-6.748zm8.287 0h6.75V70.9h-6.75zm8.07 0h6.748V70.9h-6.748zm8.291 0h6.744V70.9h-6.744zm8.002 0h6.748V70.9h-6.748z"/><path d="M303.063 63.977h6.75V70.9h-6.75zm8.291 0h6.746V70.9h-6.746zm8.004 0h6.748V70.9h-6.748zm8.287 0h6.75V70.9h-6.75zm8.07 0h6.748V70.9h-6.748zm8.291 0h6.744V70.9h-6.744zm8.002 0h6.748V70.9h-6.748zm-48.945 8.589h6.75v6.92h-6.75zm8.291 0h6.746v6.92h-6.746zm8.004 0h6.748v6.92h-6.748zm8.287 0h6.75v6.92h-6.75zm8.07 0h6.748v6.92h-6.748zm8.291 0h6.744v6.92h-6.744zm8.002 0h6.748v6.92h-6.748zm-48.945 8.776h6.75v6.919h-6.75zm8.291 0h6.746v6.919h-6.746zm8.004 0h6.748v6.919h-6.748zm8.287 0h6.75v6.919h-6.75zm8.07 0h6.748v6.919h-6.748zm8.291 0h6.744v6.919h-6.744zm8.002 0h6.748v6.919h-6.748z"/><path d="M303.063 81.342h6.75v6.919h-6.75zm8.291 0h6.746v6.919h-6.746zm8.004 0h6.748v6.919h-6.748zm8.287 0h6.75v6.919h-6.75zm8.07 0h6.748v6.919h-6.748zm8.291 0h6.744v6.919h-6.744zm8.002 0h6.748v6.919h-6.748zm-48.945 8.524h6.75v6.92h-6.75zm8.291 0h6.746v6.92h-6.746zm8.004 0h6.748v6.92h-6.748zm8.287 0h6.75v6.92h-6.75zm8.07 0h6.748v6.92h-6.748zm8.291 0h6.744v6.92h-6.744zm8.002 0h6.748v6.92h-6.748zm-48.945 8.93h6.75v6.922h-6.75zm8.291 0h6.746v6.922h-6.746zm8.004 0h6.748v6.922h-6.748zm8.287 0h6.75v6.922h-6.75zm8.07 0h6.748v6.922h-6.748zm8.291 0h6.744v6.922h-6.744zm8.002 0h6.748v6.922h-6.748z"/><path d="M303.063 98.796h6.75v6.922h-6.75zm8.291 0h6.746v6.922h-6.746zm8.004 0h6.748v6.922h-6.748zm8.287 0h6.75v6.922h-6.75zm8.07 0h6.748v6.922h-6.748zm8.291 0h6.744v6.922h-6.744zm8.002 0h6.748v6.922h-6.748zm-48.945 8.588h6.75v6.922h-6.75zm8.291 0h6.746v6.922h-6.746zm8.004 0h6.748v6.922h-6.748zm8.287 0h6.75v6.922h-6.75zm8.07 0h6.748v6.922h-6.748zm8.291 0h6.744v6.922h-6.744zm8.002 0h6.748v6.922h-6.748zm-48.945 8.776h6.75v6.921h-6.75zm8.291 0h6.746v6.921h-6.746zm8.004 0h6.748v6.921h-6.748zm8.287 0h6.75v6.921h-6.75zm8.07 0h6.748v6.921h-6.748zm8.291 0h6.744v6.921h-6.744zm8.002 0h6.748v6.921h-6.748z"/><path d="M303.063 116.16h6.75v6.921h-6.75zm8.291 0h6.746v6.921h-6.746zm8.004 0h6.748v6.921h-6.748zm8.287 0h6.75v6.921h-6.75zm8.07 0h6.748v6.921h-6.748zm8.291 0h6.744v6.921h-6.744zm8.002 0h6.748v6.921h-6.748zm-48.945 8.527h6.75v6.919h-6.75zm8.291 0h6.746v6.919h-6.746zm8.004 0h6.748v6.919h-6.748zm8.287 0h6.75v6.919h-6.75zm8.07 0h6.748v6.919h-6.748zm8.291 0h6.744v6.919h-6.744zm8.002 0h6.748v6.919h-6.748zm-48.945 8.646h6.75v6.92h-6.75zm8.291 0h6.746v6.92h-6.746zm8.004 0h6.748v6.92h-6.748zm8.287 0h6.75v6.92h-6.75zm8.07 0h6.748v6.92h-6.748zm8.291 0h6.744v6.92h-6.744zm8.002 0h6.748v6.92h-6.748z"/><path d="M303.063 133.333h6.75v6.92h-6.75zm8.291 0h6.746v6.92h-6.746zm8.004 0h6.748v6.92h-6.748zm8.287 0h6.75v6.92h-6.75zm8.07 0h6.748v6.92h-6.748zm8.291 0h6.744v6.92h-6.744zm8.002 0h6.748v6.92h-6.748zm-48.945 8.588h6.75v6.92h-6.75zm8.291 0h6.746v6.92h-6.746zm8.004 0h6.748v6.92h-6.748zm8.287 0h6.75v6.92h-6.75zm8.07 0h6.748v6.92h-6.748zm8.291 0h6.744v6.92h-6.744zm8.002 0h6.748v6.92h-6.748zm-48.945 8.777h6.75v6.919h-6.75zm8.291 0h6.746v6.919h-6.746zm8.004 0h6.748v6.919h-6.748zm8.287 0h6.75v6.919h-6.75zm8.07 0h6.748v6.919h-6.748zm8.291 0h6.744v6.919h-6.744zm8.002 0h6.748v6.919h-6.748z"/><path d="M303.063 150.698h6.75v6.919h-6.75zm8.291 0h6.746v6.919h-6.746zm8.004 0h6.748v6.919h-6.748zm8.287 0h6.75v6.919h-6.75zm8.07 0h6.748v6.919h-6.748zm8.291 0h6.744v6.919h-6.744zm8.002 0h6.748v6.919h-6.748zm-48.945 8.524h6.75v6.92h-6.75zm8.291 0h6.746v6.92h-6.746zm8.004 0h6.748v6.92h-6.748zm8.287 0h6.75v6.92h-6.75zm8.07 0h6.748v6.92h-6.748zm8.291 0h6.744v6.92h-6.744zm8.002 0h6.748v6.92h-6.748zm-48.945 8.931h6.75v6.92h-6.75zm8.291 0h6.746v6.92h-6.746zm8.004 0h6.748v6.92h-6.748zm8.287 0h6.75v6.92h-6.75zm8.07 0h6.748v6.92h-6.748zm8.291 0h6.744v6.92h-6.744zm8.002 0h6.748v6.92h-6.748z"/><path d="M303.063 168.153h6.75v6.92h-6.75zm8.291 0h6.746v6.92h-6.746zm8.004 0h6.748v6.92h-6.748zm8.287 0h6.75v6.92h-6.75zm8.07 0h6.748v6.92h-6.748zm8.291 0h6.744v6.92h-6.744zm8.002 0h6.748v6.92h-6.748zm-48.945 8.585h6.75v6.922h-6.75zm8.291 0h6.746v6.922h-6.746zm8.004 0h6.748v6.922h-6.748zm8.287 0h6.75v6.922h-6.75zm8.07 0h6.748v6.922h-6.748zm8.291 0h6.744v6.922h-6.744zm8.002 0h6.748v6.922h-6.748zm-48.945 8.779h6.75v6.92h-6.75zm8.291 0h6.746v6.92h-6.746zm8.004 0h6.748v6.92h-6.748zm8.287 0h6.75v6.92h-6.75zm8.07 0h6.748v6.92h-6.748zm8.291 0h6.744v6.92h-6.744zm8.002 0h6.748v6.92h-6.748z"/><path d="M303.063 185.517h6.75v6.92h-6.75zm8.291 0h6.746v6.92h-6.746zm8.004 0h6.748v6.92h-6.748zm8.287 0h6.75v6.92h-6.75zm8.07 0h6.748v6.92h-6.748zm8.291 0h6.744v6.92h-6.744zm8.002 0h6.748v6.92h-6.748zm-48.945 8.524h6.75v6.919h-6.75zm8.291 0h6.746v6.919h-6.746zm8.004 0h6.748v6.919h-6.748zm8.287 0h6.75v6.919h-6.75zm8.07 0h6.748v6.919h-6.748zm8.291 0h6.744v6.919h-6.744zm8.002 0h6.748v6.919h-6.748z"/></g><path fill="#A5A7AA" d="M307.6 4.993h46.199v54.792H307.6z"/><g fill="#FFF"><path d="M310.014 6.889h5.012v5.14h-5.012zm12.1 0h5.012v5.14h-5.012zm12.15 0h5.01v5.14h-5.01zm12.098 0h5.012v5.14h-5.012z"/><path d="M310.014 6.889h5.012v5.14h-5.012zm12.1 0h5.012v5.14h-5.012zm12.15 0h5.01v5.14h-5.01zm12.098 0h5.012v5.14h-5.012zm-36.348 6.377h5.012v5.14h-5.012zm12.1 0h5.012v5.14h-5.012zm12.15 0h5.01v5.14h-5.01zm12.098 0h5.012v5.14h-5.012zm-36.348 6.517h5.012v5.139h-5.012zm12.1 0h5.012v5.139h-5.012zm12.15 0h5.01v5.139h-5.01zm12.098 0h5.012v5.139h-5.012z"/><path d="M310.014 19.783h5.012v5.139h-5.012zm12.1 0h5.012v5.139h-5.012zm12.15 0h5.01v5.139h-5.01zm12.098 0h5.012v5.139h-5.012zm-36.348 6.329h5.012v5.141h-5.012zm12.1 0h5.012v5.141h-5.012zm12.15 0h5.01v5.141h-5.01zm12.098 0h5.012v5.141h-5.012zm-36.348 6.636h5.012v5.137h-5.012zm12.1 0h5.012v5.137h-5.012zm12.15 0h5.01v5.137h-5.01zm12.098 0h5.012v5.137h-5.012z"/><path d="M310.014 32.748h5.012v5.137h-5.012zm12.1 0h5.012v5.137h-5.012zm12.15 0h5.01v5.137h-5.01zm12.098 0h5.012v5.137h-5.012zm-36.348 6.376h5.012v5.14h-5.012zm12.1 0h5.012v5.14h-5.012zm12.15 0h5.01v5.14h-5.01zm12.098 0h5.012v5.14h-5.012zm-36.348 6.517h5.012v5.141h-5.012zm12.1 0h5.012v5.141h-5.012zm12.15 0h5.01v5.141h-5.01zm12.098 0h5.012v5.141h-5.012z"/><path d="M310.014 45.641h5.012v5.141h-5.012zm12.1 0h5.012v5.141h-5.012zm12.15 0h5.01v5.141h-5.01zm12.098 0h5.012v5.141h-5.012zm-36.348 6.333h5.012v5.137h-5.012zm12.1 0h5.012v5.137h-5.012zm12.15 0h5.01v5.137h-5.01zm12.098 0h5.012v5.137h-5.012z"/></g><path fill="#808083" d="M285.87 210.353h89.666v18.638H285.87z"/><path fill="#A5A7AA" d="M376.536 102.569h44.408v128.424h-44.408z"/><g fill="#FFF"><path d="M379.752 106.232h4.725v9.982h-4.725zm5.807 0h4.725v9.982h-4.725zm5.606 0h4.723v9.982h-4.723zm5.804 0h4.723v9.982h-4.723zm5.649 0h4.727v9.982h-4.727zm5.804 0h4.723v9.982h-4.723zm5.606 0h4.725v9.982h-4.725z"/><path d="M379.752 106.232h4.725v9.982h-4.725zm5.807 0h4.725v9.982h-4.725zm5.606 0h4.723v9.982h-4.723zm5.804 0h4.723v9.982h-4.723zm5.649 0h4.727v9.982h-4.727zm5.804 0h4.723v9.982h-4.723zm5.606 0h4.725v9.982h-4.725zm-34.276 12.296h4.725v9.983h-4.725zm5.807 0h4.725v9.983h-4.725zm5.606 0h4.723v9.983h-4.723zm5.804 0h4.723v9.983h-4.723zm5.649 0h4.727v9.983h-4.727zm5.804 0h4.723v9.983h-4.723zm5.606 0h4.725v9.983h-4.725zm-34.276 12.883h4.725v9.98h-4.725zm5.807 0h4.725v9.98h-4.725zm5.606 0h4.723v9.98h-4.723zm5.804 0h4.723v9.98h-4.723zm5.649 0h4.727v9.98h-4.727zm5.804 0h4.723v9.98h-4.723zm5.606 0h4.725v9.98h-4.725z"/><path d="M379.752 131.411h4.725v9.98h-4.725zm5.807 0h4.725v9.98h-4.725zm5.606 0h4.723v9.98h-4.723zm5.804 0h4.723v9.98h-4.723zm5.649 0h4.727v9.98h-4.727zm5.804 0h4.723v9.98h-4.723zm5.606 0h4.725v9.98h-4.725zm-34.276 12.385h4.725v9.982h-4.725zm5.807 0h4.725v9.982h-4.725zm5.606 0h4.723v9.982h-4.723zm5.804 0h4.723v9.982h-4.723zm5.649 0h4.727v9.982h-4.727zm5.804 0h4.723v9.982h-4.723zm5.606 0h4.725v9.982h-4.725zm-34.276 12.658h4.725v9.984h-4.725zm5.807 0h4.725v9.984h-4.725zm5.606 0h4.723v9.984h-4.723zm5.804 0h4.723v9.984h-4.723zm5.649 0h4.727v9.984h-4.727zm5.804 0h4.723v9.984h-4.723zm5.606 0h4.725v9.984h-4.725z"/><path d="M379.752 156.454h4.725v9.984h-4.725zm5.807 0h4.725v9.984h-4.725zm5.606 0h4.723v9.984h-4.723zm5.804 0h4.723v9.984h-4.723zm5.649 0h4.727v9.984h-4.727zm5.804 0h4.723v9.984h-4.723zm5.606 0h4.725v9.984h-4.725zm-34.276 12.297h4.725v9.982h-4.725zm5.807 0h4.725v9.982h-4.725zm5.606 0h4.723v9.982h-4.723zm5.804 0h4.723v9.982h-4.723zm5.649 0h4.727v9.982h-4.727zm5.804 0h4.723v9.982h-4.723zm5.606 0h4.725v9.982h-4.725zm-34.276 12.476h4.725v9.983h-4.725zm5.807 0h4.725v9.983h-4.725zm5.606 0h4.723v9.983h-4.723zm5.804 0h4.723v9.983h-4.723zm5.649 0h4.727v9.983h-4.727zm5.804 0h4.723v9.983h-4.723zm5.606 0h4.725v9.983h-4.725z"/><path d="M379.752 181.227h4.725v9.983h-4.725zm5.807 0h4.725v9.983h-4.725zm5.606 0h4.723v9.983h-4.723zm5.804 0h4.723v9.983h-4.723zm5.649 0h4.727v9.983h-4.727zm5.804 0h4.723v9.983h-4.723zm5.606 0h4.725v9.983h-4.725zm-34.276 12.388h4.725v9.979h-4.725zm5.807 0h4.725v9.979h-4.725zm5.606 0h4.723v9.979h-4.723zm5.804 0h4.723v9.979h-4.723zm5.649 0h4.727v9.979h-4.727zm5.804 0h4.723v9.979h-4.723zm5.606 0h4.725v9.979h-4.725z"/></g><path fill="#808083" d="M379.598-3.153h36.607v105.874h-36.607z"/><g fill="#FFF"><path d="M382.249 4.454h3.896v5.199h-3.896zm4.787 0h3.895v5.199h-3.895zm4.623 0h3.893v5.199h-3.893zm4.781 0h3.896v5.199h-3.896zm4.658 0h3.896v5.199h-3.896zm4.787 0h3.893v5.199h-3.893zm4.619 0h3.896v5.199h-3.896z"/><path d="M382.249 4.454h3.896v5.199h-3.896zm4.787 0h3.895v5.199h-3.895zm4.623 0h3.893v5.199h-3.893zm4.781 0h3.896v5.199h-3.896zm4.658 0h3.896v5.199h-3.896zm4.787 0h3.893v5.199h-3.893zm4.619 0h3.896v5.199h-3.896zm-28.255 6.402h3.896v5.202h-3.896zm4.787 0h3.895v5.202h-3.895zm4.623 0h3.893v5.202h-3.893zm4.781 0h3.896v5.202h-3.896zm4.658 0h3.896v5.202h-3.896zm4.787 0h3.893v5.202h-3.893zm4.619 0h3.896v5.202h-3.896zm-28.255 6.713h3.896v5.199h-3.896zm4.787 0h3.895v5.199h-3.895zm4.623 0h3.893v5.199h-3.893zm4.781 0h3.896v5.199h-3.896zm4.658 0h3.896v5.199h-3.896zm4.787 0h3.893v5.199h-3.893zm4.619 0h3.896v5.199h-3.896z"/><path d="M382.249 17.569h3.896v5.199h-3.896zm4.787 0h3.895v5.199h-3.895zm4.623 0h3.893v5.199h-3.893zm4.781 0h3.896v5.199h-3.896zm4.658 0h3.896v5.199h-3.896zm4.787 0h3.893v5.199h-3.893zm4.619 0h3.896v5.199h-3.896zm-28.255 6.453h3.896v5.2h-3.896zm4.787 0h3.895v5.2h-3.895zm4.623 0h3.893v5.2h-3.893zm4.781 0h3.896v5.2h-3.896zm4.658 0h3.896v5.2h-3.896zm4.787 0h3.893v5.2h-3.893zm4.619 0h3.896v5.2h-3.896zm-28.255 6.593h3.896v5.201h-3.896zm4.787 0h3.895v5.201h-3.895zm4.623 0h3.893v5.201h-3.893zm4.781 0h3.896v5.201h-3.896zm4.658 0h3.896v5.201h-3.896zm4.787 0h3.893v5.201h-3.893zm4.619 0h3.896v5.201h-3.896z"/><path d="M382.249 30.615h3.896v5.201h-3.896zm4.787 0h3.895v5.201h-3.895zm4.623 0h3.893v5.201h-3.893zm4.781 0h3.896v5.201h-3.896zm4.658 0h3.896v5.201h-3.896zm4.787 0h3.893v5.201h-3.893zm4.619 0h3.896v5.201h-3.896zm-28.255 6.406h3.896v5.2h-3.896zm4.787 0h3.895v5.2h-3.895zm4.623 0h3.893v5.2h-3.893zm4.781 0h3.896v5.2h-3.896zm4.658 0h3.896v5.2h-3.896zm4.787 0h3.893v5.2h-3.893zm4.619 0h3.896v5.2h-3.896zm-28.255 6.5h3.896v5.2h-3.896zm4.787 0h3.895v5.2h-3.895zm4.623 0h3.893v5.2h-3.893zm4.781 0h3.896v5.2h-3.896zm4.658 0h3.896v5.2h-3.896zm4.787 0h3.893v5.2h-3.893zm4.619 0h3.896v5.2h-3.896z"/><path d="M382.249 43.521h3.896v5.2h-3.896zm4.787 0h3.895v5.2h-3.895zm4.623 0h3.893v5.2h-3.893zm4.781 0h3.896v5.2h-3.896zm4.658 0h3.896v5.2h-3.896zm4.787 0h3.893v5.2h-3.893zm4.619 0h3.896v5.2h-3.896zm-28.255 6.452h3.896v5.2h-3.896zm4.787 0h3.895v5.2h-3.895zm4.623 0h3.893v5.2h-3.893zm4.781 0h3.896v5.2h-3.896zm4.658 0h3.896v5.2h-3.896zm4.787 0h3.893v5.2h-3.893zm4.619 0h3.896v5.2h-3.896zm-28.255 6.152h3.896v5.201h-3.896zm4.787 0h3.895v5.201h-3.895zm4.623 0h3.893v5.201h-3.893zm4.781 0h3.896v5.201h-3.896zm4.658 0h3.896v5.201h-3.896zm4.787 0h3.893v5.201h-3.893zm4.619 0h3.896v5.201h-3.896z"/><path d="M382.249 56.125h3.896v5.201h-3.896zm4.787 0h3.895v5.201h-3.895zm4.623 0h3.893v5.201h-3.893zm4.781 0h3.896v5.201h-3.896zm4.658 0h3.896v5.201h-3.896zm4.787 0h3.893v5.201h-3.893zm4.619 0h3.896v5.201h-3.896zm-28.255 6.404h3.896v5.202h-3.896zm4.787 0h3.895v5.202h-3.895zm4.623 0h3.893v5.202h-3.893zm4.781 0h3.896v5.202h-3.896zm4.658 0h3.896v5.202h-3.896zm4.787 0h3.893v5.202h-3.893zm4.619 0h3.896v5.202h-3.896zm-28.255 6.712h3.896v5.2h-3.896zm4.787 0h3.895v5.2h-3.895zm4.623 0h3.893v5.2h-3.893zm4.781 0h3.896v5.2h-3.896zm4.658 0h3.896v5.2h-3.896zm4.787 0h3.893v5.2h-3.893zm4.619 0h3.896v5.2h-3.896z"/><path d="M382.249 69.241h3.896v5.2h-3.896zm4.787 0h3.895v5.2h-3.895zm4.623 0h3.893v5.2h-3.893zm4.781 0h3.896v5.2h-3.896zm4.658 0h3.896v5.2h-3.896zm4.787 0h3.893v5.2h-3.893zm4.619 0h3.896v5.2h-3.896zm-28.255 6.452h3.896v5.2h-3.896zm4.787 0h3.895v5.2h-3.895zm4.623 0h3.893v5.2h-3.893zm4.781 0h3.896v5.2h-3.896zm4.658 0h3.896v5.2h-3.896zm4.787 0h3.893v5.2h-3.893zm4.619 0h3.896v5.2h-3.896zm-28.255 6.597h3.896v5.2h-3.896zm4.787 0h3.895v5.2h-3.895zm4.623 0h3.893v5.2h-3.893zm4.781 0h3.896v5.2h-3.896zm4.658 0h3.896v5.2h-3.896zm4.787 0h3.893v5.2h-3.893zm4.619 0h3.896v5.2h-3.896z"/><path d="M382.249 82.29h3.896v5.2h-3.896zm4.787 0h3.895v5.2h-3.895zm4.623 0h3.893v5.2h-3.893zm4.781 0h3.896v5.2h-3.896zm4.658 0h3.896v5.2h-3.896zm4.787 0h3.893v5.2h-3.893zm4.619 0h3.896v5.2h-3.896zm-28.255 6.404h3.896v5.199h-3.896zm4.787 0h3.895v5.199h-3.895zm4.623 0h3.893v5.199h-3.893zm4.781 0h3.896v5.199h-3.896zm4.658 0h3.896v5.199h-3.896zm4.787 0h3.893v5.199h-3.893zm4.619 0h3.896v5.199h-3.896zm-28.255 6.501h3.896v5.199h-3.896zm4.787 0h3.895v5.199h-3.895zm4.623 0h3.893v5.199h-3.893zm4.781 0h3.896v5.199h-3.896zm4.658 0h3.896v5.199h-3.896zm4.787 0h3.893v5.199h-3.893zm4.619 0h3.896v5.199h-3.896z"/><path d="M382.249 95.195h3.896v5.199h-3.896zm4.787 0h3.895v5.199h-3.895zm4.623 0h3.893v5.199h-3.893zm4.781 0h3.896v5.199h-3.896zm4.658 0h3.896v5.199h-3.896zm4.787 0h3.893v5.199h-3.893zm4.619 0h3.896v5.199h-3.896z"/></g><path fill="#A5A7AA" d="M424.311 138.646h44.406v93.348h-44.406z"/><g fill="#FFF"><path d="M427.528 145.351h4.723v8.088h-4.723zm5.803 0h4.725v8.088h-4.725zm5.605 0h4.725v8.088h-4.725zm5.807 0h4.721v8.088h-4.721zm5.646 0h4.727v8.088h-4.727zm5.805 0h4.727v8.088h-4.727zm5.607 0h4.723v8.088h-4.723z"/><path d="M427.528 145.351h4.723v8.088h-4.723zm5.803 0h4.725v8.088h-4.725zm5.605 0h4.725v8.088h-4.725zm5.807 0h4.721v8.088h-4.721zm5.646 0h4.727v8.088h-4.727zm5.805 0h4.727v8.088h-4.727zm5.607 0h4.723v8.088h-4.723zm-34.273 9.961h4.723v8.086h-4.723zm5.803 0h4.725v8.086h-4.725zm5.605 0h4.725v8.086h-4.725zm5.807 0h4.721v8.086h-4.721zm5.646 0h4.727v8.086h-4.727zm5.805 0h4.727v8.086h-4.727zm5.607 0h4.723v8.086h-4.723zm-34.273 10.432h4.723v8.085h-4.723zm5.803 0h4.725v8.085h-4.725zm5.605 0h4.725v8.085h-4.725zm5.807 0h4.721v8.085h-4.721zm5.646 0h4.727v8.085h-4.727zm5.805 0h4.727v8.085h-4.727zm5.607 0h4.723v8.085h-4.723z"/><path d="M427.528 165.744h4.723v8.085h-4.723zm5.803 0h4.725v8.085h-4.725zm5.605 0h4.725v8.085h-4.725zm5.807 0h4.721v8.085h-4.721zm5.646 0h4.727v8.085h-4.727zm5.805 0h4.727v8.085h-4.727zm5.607 0h4.723v8.085h-4.723zm-34.273 10.035h4.723v8.083h-4.723zm5.803 0h4.725v8.083h-4.725zm5.605 0h4.725v8.083h-4.725zm5.807 0h4.721v8.083h-4.721zm5.646 0h4.727v8.083h-4.727zm5.805 0h4.727v8.083h-4.727zm5.607 0h4.723v8.083h-4.723zm-34.273 10.252h4.723v8.085h-4.723zm5.803 0h4.725v8.085h-4.725zm5.605 0h4.725v8.085h-4.725zm5.807 0h4.721v8.085h-4.721zm5.646 0h4.727v8.085h-4.727zm5.805 0h4.727v8.085h-4.727zm5.607 0h4.723v8.085h-4.723z"/><path d="M427.528 186.031h4.723v8.085h-4.723zm5.803 0h4.725v8.085h-4.725zm5.605 0h4.725v8.085h-4.725zm5.807 0h4.721v8.085h-4.721zm5.646 0h4.727v8.085h-4.727zm5.805 0h4.727v8.085h-4.727zm5.607 0h4.723v8.085h-4.723zm-34.273 9.956h4.723v8.088h-4.723zm5.803 0h4.725v8.088h-4.725zm5.605 0h4.725v8.088h-4.725zm5.807 0h4.721v8.088h-4.721zm5.646 0h4.727v8.088h-4.727zm5.805 0h4.727v8.088h-4.727zm5.607 0h4.723v8.088h-4.723zm-34.273 10.106h4.723v8.083h-4.723zm5.803 0h4.725v8.083h-4.725zm5.605 0h4.725v8.083h-4.725zm5.807 0h4.721v8.083h-4.721zm5.646 0h4.727v8.083h-4.727zm5.805 0h4.727v8.083h-4.727zm5.607 0h4.723v8.083h-4.723z"/><path d="M427.528 206.093h4.723v8.083h-4.723zm5.803 0h4.725v8.083h-4.725zm5.605 0h4.725v8.083h-4.725zm5.807 0h4.721v8.083h-4.721zm5.646 0h4.727v8.083h-4.727zm5.805 0h4.727v8.083h-4.727zm5.607 0h4.723v8.083h-4.723zm-34.273 10.03h4.723v8.082h-4.723zm5.803 0h4.725v8.082h-4.725zm5.605 0h4.725v8.082h-4.725zm5.807 0h4.721v8.082h-4.721zm5.646 0h4.727v8.082h-4.727zm5.805 0h4.727v8.082h-4.727zm5.607 0h4.723v8.082h-4.723z"/></g><path fill="#808083" d="M157.19 210.452h128.135v29.174H157.19z"/><path fill="#FFF" d="M159.504 213.148h15.418v4.059h-15.418zm0 4.982h15.418v4.057h-15.418zm0 4.849h15.418v4.059h-15.418zm105.93-8.831h15.418v4.059h-15.418zm0 4.982h15.418v4.057h-15.418zm0 4.849h15.418v4.059h-15.418z"/><path fill="#A5A7AA" d="M220.247 22.266h43.904v188.516h-43.904z"/><path fill="#A5A7AA" d="M176.661 22.266h46.465v188.516h-46.465z"/><path fill="#FFF" d="M188.583 31.917h5.758v185.466h-5.758zm11.511 0h5.762v185.466h-5.762zm11.516 0h5.758v185.466h-5.758zm11.515 0h5.758v185.466h-5.758zm11.516 0h5.754v185.466h-5.754zm11.514 0h5.758v185.466h-5.758zm73.449 176.665h10.471v20.542h-10.471zm11.729 0h10.473v20.542h-10.473z"/><path fill="#CDAA98" d="M10.472 61.217h63.412v169.48H10.472z"/><g fill="#FFF"><path d="M15.064 65.684h6.75v6.923h-6.75zm8.289 0h6.748v6.923h-6.748zm8.006 0h6.748v6.923h-6.748zm8.287 0h6.75v6.923h-6.75zm8.07 0h6.748v6.923h-6.748zm8.289 0h6.746v6.923h-6.746zm8.004 0h6.748v6.923h-6.748z"/><path d="M15.064 65.684h6.75v6.923h-6.75zm8.289 0h6.748v6.923h-6.748zm8.006 0h6.748v6.923h-6.748zm8.287 0h6.75v6.923h-6.75zm8.07 0h6.748v6.923h-6.748zm8.289 0h6.746v6.923h-6.746zm8.004 0h6.748v6.923h-6.748zm-48.945 8.589h6.75v6.92h-6.75zm8.289 0h6.748v6.92h-6.748zm8.006 0h6.748v6.92h-6.748zm8.287 0h6.75v6.92h-6.75zm8.07 0h6.748v6.92h-6.748zm8.289 0h6.746v6.92h-6.746zm8.004 0h6.748v6.92h-6.748zm-48.945 8.776h6.75v6.919h-6.75zm8.289 0h6.748v6.919h-6.748zm8.006 0h6.748v6.919h-6.748zm8.287 0h6.75v6.919h-6.75zm8.07 0h6.748v6.919h-6.748zm8.289 0h6.746v6.919h-6.746zm8.004 0h6.748v6.919h-6.748z"/><path d="M15.064 83.049h6.75v6.919h-6.75zm8.289 0h6.748v6.919h-6.748zm8.006 0h6.748v6.919h-6.748zm8.287 0h6.75v6.919h-6.75zm8.07 0h6.748v6.919h-6.748zm8.289 0h6.746v6.919h-6.746zm8.004 0h6.748v6.919h-6.748zm-48.945 8.524h6.75v6.92h-6.75zm8.289 0h6.748v6.92h-6.748zm8.006 0h6.748v6.92h-6.748zm8.287 0h6.75v6.92h-6.75zm8.07 0h6.748v6.92h-6.748zm8.289 0h6.746v6.92h-6.746zm8.004 0h6.748v6.92h-6.748zm-48.945 8.93h6.75v6.922h-6.75zm8.289 0h6.748v6.922h-6.748zm8.006 0h6.748v6.922h-6.748zm8.287 0h6.75v6.922h-6.75zm8.07 0h6.748v6.922h-6.748zm8.289 0h6.746v6.922h-6.746zm8.004 0h6.748v6.922h-6.748z"/><path d="M15.064 100.503h6.75v6.922h-6.75zm8.289 0h6.748v6.922h-6.748zm8.006 0h6.748v6.922h-6.748zm8.287 0h6.75v6.922h-6.75zm8.07 0h6.748v6.922h-6.748zm8.289 0h6.746v6.922h-6.746zm8.004 0h6.748v6.922h-6.748zm-48.945 8.588h6.75v6.922h-6.75zm8.289 0h6.748v6.922h-6.748zm8.006 0h6.748v6.922h-6.748zm8.287 0h6.75v6.922h-6.75zm8.07 0h6.748v6.922h-6.748zm8.289 0h6.746v6.922h-6.746zm8.004 0h6.748v6.922h-6.748zm-48.945 8.776h6.75v6.921h-6.75zm8.289 0h6.748v6.921h-6.748zm8.006 0h6.748v6.921h-6.748zm8.287 0h6.75v6.921h-6.75zm8.07 0h6.748v6.921h-6.748zm8.289 0h6.746v6.921h-6.746zm8.004 0h6.748v6.921h-6.748z"/><path d="M15.064 117.867h6.75v6.921h-6.75zm8.289 0h6.748v6.921h-6.748zm8.006 0h6.748v6.921h-6.748zm8.287 0h6.75v6.921h-6.75zm8.07 0h6.748v6.921h-6.748zm8.289 0h6.746v6.921h-6.746zm8.004 0h6.748v6.921h-6.748zm-48.945 8.527h6.75v6.919h-6.75zm8.289 0h6.748v6.919h-6.748zm8.006 0h6.748v6.919h-6.748zm8.287 0h6.75v6.919h-6.75zm8.07 0h6.748v6.919h-6.748zm8.289 0h6.746v6.919h-6.746zm8.004 0h6.748v6.919h-6.748zm-48.945 8.646h6.75v6.92h-6.75zm8.289 0h6.748v6.92h-6.748zm8.006 0h6.748v6.92h-6.748zm8.287 0h6.75v6.92h-6.75zm8.07 0h6.748v6.92h-6.748zm8.289 0h6.746v6.92h-6.746zm8.004 0h6.748v6.92h-6.748z"/><path d="M15.064 135.04h6.75v6.92h-6.75zm8.289 0h6.748v6.92h-6.748zm8.006 0h6.748v6.92h-6.748zm8.287 0h6.75v6.92h-6.75zm8.07 0h6.748v6.92h-6.748zm8.289 0h6.746v6.92h-6.746zm8.004 0h6.748v6.92h-6.748zm-48.945 8.588h6.75v6.92h-6.75zm8.289 0h6.748v6.92h-6.748zm8.006 0h6.748v6.92h-6.748zm8.287 0h6.75v6.92h-6.75zm8.07 0h6.748v6.92h-6.748zm8.289 0h6.746v6.92h-6.746zm8.004 0h6.748v6.92h-6.748zm-48.945 8.777h6.75v6.919h-6.75zm8.289 0h6.748v6.919h-6.748zm8.006 0h6.748v6.919h-6.748zm8.287 0h6.75v6.919h-6.75zm8.07 0h6.748v6.919h-6.748zm8.289 0h6.746v6.919h-6.746zm8.004 0h6.748v6.919h-6.748z"/><path d="M15.064 152.405h6.75v6.919h-6.75zm8.289 0h6.748v6.919h-6.748zm8.006 0h6.748v6.919h-6.748zm8.287 0h6.75v6.919h-6.75zm8.07 0h6.748v6.919h-6.748zm8.289 0h6.746v6.919h-6.746zm8.004 0h6.748v6.919h-6.748zm-48.945 8.524h6.75v6.92h-6.75zm8.289 0h6.748v6.92h-6.748zm8.006 0h6.748v6.92h-6.748zm8.287 0h6.75v6.92h-6.75zm8.07 0h6.748v6.92h-6.748zm8.289 0h6.746v6.92h-6.746zm8.004 0h6.748v6.92h-6.748zm-48.945 8.931h6.75v6.92h-6.75zm8.289 0h6.748v6.92h-6.748zm8.006 0h6.748v6.92h-6.748zm8.287 0h6.75v6.92h-6.75zm8.07 0h6.748v6.92h-6.748zm8.289 0h6.746v6.92h-6.746zm8.004 0h6.748v6.92h-6.748z"/><path d="M15.064 169.86h6.75v6.92h-6.75zm8.289 0h6.748v6.92h-6.748zm8.006 0h6.748v6.92h-6.748zm8.287 0h6.75v6.92h-6.75zm8.07 0h6.748v6.92h-6.748zm8.289 0h6.746v6.92h-6.746zm8.004 0h6.748v6.92h-6.748zm-48.945 8.585h6.75v6.922h-6.75zm8.289 0h6.748v6.922h-6.748zm8.006 0h6.748v6.922h-6.748zm8.287 0h6.75v6.922h-6.75zm8.07 0h6.748v6.922h-6.748zm8.289 0h6.746v6.922h-6.746zm8.004 0h6.748v6.922h-6.748zm-48.945 8.779h6.75v6.92h-6.75zm8.289 0h6.748v6.92h-6.748zm8.006 0h6.748v6.92h-6.748zm8.287 0h6.75v6.92h-6.75zm8.07 0h6.748v6.92h-6.748zm8.289 0h6.746v6.92h-6.746zm8.004 0h6.748v6.92h-6.748z"/><path d="M15.064 187.224h6.75v6.92h-6.75zm8.289 0h6.748v6.92h-6.748zm8.006 0h6.748v6.92h-6.748zm8.287 0h6.75v6.92h-6.75zm8.07 0h6.748v6.92h-6.748zm8.289 0h6.746v6.92h-6.746zm8.004 0h6.748v6.92h-6.748zm-48.945 8.524h6.75v6.919h-6.75zm8.289 0h6.748v6.919h-6.748zm8.006 0h6.748v6.919h-6.748zm8.287 0h6.75v6.919h-6.75zm8.07 0h6.748v6.919h-6.748zm8.289 0h6.746v6.919h-6.746zm8.004 0h6.748v6.919h-6.748z"/></g><path fill="#C39883" d="M19.601 6.7H65.8v54.792H19.601z"/><g fill="#FFF"><path d="M22.015 8.596h5.01v5.14h-5.01zm12.1 0h5.012v5.14h-5.012zm12.148 0h5.012v5.14h-5.012zm12.1 0h5.01v5.14h-5.01z"/><path d="M22.015 8.596h5.01v5.14h-5.01zm12.1 0h5.012v5.14h-5.012zm12.148 0h5.012v5.14h-5.012zm12.1 0h5.01v5.14h-5.01zm-36.348 6.377h5.01v5.14h-5.01zm12.1 0h5.012v5.14h-5.012zm12.148 0h5.012v5.14h-5.012zm12.1 0h5.01v5.14h-5.01zM22.015 21.49h5.01v5.139h-5.01zm12.1 0h5.012v5.139h-5.012zm12.148 0h5.012v5.139h-5.012zm12.1 0h5.01v5.139h-5.01z"/><path d="M22.015 21.49h5.01v5.139h-5.01zm12.1 0h5.012v5.139h-5.012zm12.148 0h5.012v5.139h-5.012zm12.1 0h5.01v5.139h-5.01zm-36.348 6.329h5.01v5.141h-5.01zm12.1 0h5.012v5.141h-5.012zm12.148 0h5.012v5.141h-5.012zm12.1 0h5.01v5.141h-5.01zm-36.348 6.636h5.01v5.137h-5.01zm12.1 0h5.012v5.137h-5.012zm12.148 0h5.012v5.137h-5.012zm12.1 0h5.01v5.137h-5.01z"/><path d="M22.015 34.455h5.01v5.137h-5.01zm12.1 0h5.012v5.137h-5.012zm12.148 0h5.012v5.137h-5.012zm12.1 0h5.01v5.137h-5.01zm-36.348 6.376h5.01v5.14h-5.01zm12.1 0h5.012v5.14h-5.012zm12.148 0h5.012v5.14h-5.012zm12.1 0h5.01v5.14h-5.01zm-36.348 6.517h5.01v5.141h-5.01zm12.1 0h5.012v5.141h-5.012zm12.148 0h5.012v5.141h-5.012zm12.1 0h5.01v5.141h-5.01z"/><path d="M22.015 47.348h5.01v5.141h-5.01zm12.1 0h5.012v5.141h-5.012zm12.148 0h5.012v5.141h-5.012zm12.1 0h5.01v5.141h-5.01zm-36.348 6.333h5.01v5.137h-5.01zm12.1 0h5.012v5.137h-5.012zm12.148 0h5.012v5.137h-5.012zm12.1 0h5.01v5.137h-5.01z"/></g><path fill="#C39883" d="M-2.13 210.06h89.667v18.638H-2.13z"/><path fill="#FFF" d="M31.603 210.289h10.473v20.542H31.603zm11.73 0h10.471v20.542H43.333z"/><path fill="#B7B8B8" d="M473.422 15.457h62.891v219.536h-62.891z"/><path fill="#A5A7AA" d="M540.756 133.589h56.168v102.462h-56.168z"/><path d="M544.264 137.411h4.449v96.347h-4.449zm8.897 0h4.451v96.347h-4.451zm8.898 0h4.449v96.347h-4.449zm8.9 0h4.447v96.347h-4.447zm8.893 0h4.451v96.347h-4.451zm8.9 0h4.447v96.347h-4.447z" fill="#FFF"/><path fill="#808083" d="M544.264 126.767H593.2v6.822h-48.936z"/><g fill="#FFF"><path d="M476.713 52.721h3.283v8.23h-3.283zm4.036 0h3.285v8.23h-3.285zm3.898 0h3.285v8.23h-3.285zm4.037 0h3.283v8.23h-3.283zm3.93 0h3.285v8.23h-3.285zm4.035 0h3.285v8.23h-3.285zm3.896 0h3.285v8.23h-3.285z"/><path d="M476.713 52.721h3.283v8.23h-3.283zm4.036 0h3.285v8.23h-3.285zm3.898 0h3.285v8.23h-3.285zm4.037 0h3.283v8.23h-3.283zm3.93 0h3.285v8.23h-3.285zm4.035 0h3.285v8.23h-3.285zm3.896 0h3.285v8.23h-3.285zm-23.832 10.137h3.283v8.229h-3.283zm4.036 0h3.285v8.229h-3.285zm3.898 0h3.285v8.229h-3.285zm4.037 0h3.283v8.229h-3.283zm3.93 0h3.285v8.229h-3.285zm4.035 0h3.285v8.229h-3.285zm3.896 0h3.285v8.229h-3.285zm-23.832 10.623h3.283v8.229h-3.283zm4.036 0h3.285v8.229h-3.285zm3.898 0h3.285v8.229h-3.285zm4.037 0h3.283v8.229h-3.283zm3.93 0h3.285v8.229h-3.285zm4.035 0h3.285v8.229h-3.285zm3.896 0h3.285v8.229h-3.285z"/><path d="M476.713 73.481h3.283v8.229h-3.283zm4.036 0h3.285v8.229h-3.285zm3.898 0h3.285v8.229h-3.285zm4.037 0h3.283v8.229h-3.283zm3.93 0h3.285v8.229h-3.285zm4.035 0h3.285v8.229h-3.285zm3.896 0h3.285v8.229h-3.285zm-23.832 10.213h3.283v8.228h-3.283zm4.036 0h3.285v8.228h-3.285zm3.898 0h3.285v8.228h-3.285zm4.037 0h3.283v8.228h-3.283zm3.93 0h3.285v8.228h-3.285zm4.035 0h3.285v8.228h-3.285zm3.896 0h3.285v8.228h-3.285zM476.713 94.13h3.283v8.23h-3.283zm4.036 0h3.285v8.23h-3.285zm3.898 0h3.285v8.23h-3.285zm4.037 0h3.283v8.23h-3.283zm3.93 0h3.285v8.23h-3.285zm4.035 0h3.285v8.23h-3.285zm3.896 0h3.285v8.23h-3.285z"/><path d="M476.713 94.13h3.283v8.23h-3.283zm4.036 0h3.285v8.23h-3.285zm3.898 0h3.285v8.23h-3.285zm4.037 0h3.283v8.23h-3.283zm3.93 0h3.285v8.23h-3.285zm4.035 0h3.285v8.23h-3.285zm3.896 0h3.285v8.23h-3.285zm-23.832 10.139h3.283v8.229h-3.283zm4.036 0h3.285v8.229h-3.285zm3.898 0h3.285v8.229h-3.285zm4.037 0h3.283v8.229h-3.283zm3.93 0h3.285v8.229h-3.285zm4.035 0h3.285v8.229h-3.285zm3.896 0h3.285v8.229h-3.285zm-23.832 10.285h3.283v8.231h-3.283zm4.036 0h3.285v8.231h-3.285zm3.898 0h3.285v8.231h-3.285zm4.037 0h3.283v8.231h-3.283zm3.93 0h3.285v8.231h-3.285zm4.035 0h3.285v8.231h-3.285zm3.896 0h3.285v8.231h-3.285z"/><path d="M476.713 114.554h3.283v8.231h-3.283zm4.036 0h3.285v8.231h-3.285zm3.898 0h3.285v8.231h-3.285zm4.037 0h3.283v8.231h-3.283zm3.93 0h3.285v8.231h-3.285zm4.035 0h3.285v8.231h-3.285zm3.896 0h3.285v8.231h-3.285zm-23.832 10.213h3.283v8.23h-3.283zm4.036 0h3.285v8.23h-3.285zm3.898 0h3.285v8.23h-3.285zm4.037 0h3.283v8.23h-3.283zm3.93 0h3.285v8.23h-3.285zm4.035 0h3.285v8.23h-3.285zm3.896 0h3.285v8.23h-3.285z"/></g><g fill="#FFF"><path d="M505.077 52.721h3.285v8.23h-3.285zm4.037 0h3.285v8.23h-3.285zm3.894 0h3.287v8.23h-3.287zm4.035 0h3.289v8.23h-3.289zm3.932 0h3.285v8.23h-3.285zm4.035 0h3.285v8.23h-3.285zm3.899 0h3.283v8.23h-3.283z"/><path d="M505.077 52.721h3.285v8.23h-3.285zm4.037 0h3.285v8.23h-3.285zm3.894 0h3.287v8.23h-3.287zm4.035 0h3.289v8.23h-3.289zm3.932 0h3.285v8.23h-3.285zm4.035 0h3.285v8.23h-3.285zm3.899 0h3.283v8.23h-3.283zm-23.832 10.137h3.285v8.229h-3.285zm4.037 0h3.285v8.229h-3.285zm3.894 0h3.287v8.229h-3.287zm4.035 0h3.289v8.229h-3.289zm3.932 0h3.285v8.229h-3.285zm4.035 0h3.285v8.229h-3.285zm3.899 0h3.283v8.229h-3.283zm-23.832 10.623h3.285v8.229h-3.285zm4.037 0h3.285v8.229h-3.285zm3.894 0h3.287v8.229h-3.287zm4.035 0h3.289v8.229h-3.289zm3.932 0h3.285v8.229h-3.285zm4.035 0h3.285v8.229h-3.285zm3.899 0h3.283v8.229h-3.283z"/><path d="M505.077 73.481h3.285v8.229h-3.285zm4.037 0h3.285v8.229h-3.285zm3.894 0h3.287v8.229h-3.287zm4.035 0h3.289v8.229h-3.289zm3.932 0h3.285v8.229h-3.285zm4.035 0h3.285v8.229h-3.285zm3.899 0h3.283v8.229h-3.283zm-23.832 10.213h3.285v8.228h-3.285zm4.037 0h3.285v8.228h-3.285zm3.894 0h3.287v8.228h-3.287zm4.035 0h3.289v8.228h-3.289zm3.932 0h3.285v8.228h-3.285zm4.035 0h3.285v8.228h-3.285zm3.899 0h3.283v8.228h-3.283zM505.077 94.13h3.285v8.23h-3.285zm4.037 0h3.285v8.23h-3.285zm3.894 0h3.287v8.23h-3.287zm4.035 0h3.289v8.23h-3.289zm3.932 0h3.285v8.23h-3.285zm4.035 0h3.285v8.23h-3.285zm3.899 0h3.283v8.23h-3.283z"/><path d="M505.077 94.13h3.285v8.23h-3.285zm4.037 0h3.285v8.23h-3.285zm3.894 0h3.287v8.23h-3.287zm4.035 0h3.289v8.23h-3.289zm3.932 0h3.285v8.23h-3.285zm4.035 0h3.285v8.23h-3.285zm3.899 0h3.283v8.23h-3.283zm-23.832 10.139h3.285v8.229h-3.285zm4.037 0h3.285v8.229h-3.285zm3.894 0h3.287v8.229h-3.287zm4.035 0h3.289v8.229h-3.289zm3.932 0h3.285v8.229h-3.285zm4.035 0h3.285v8.229h-3.285zm3.899 0h3.283v8.229h-3.283zm-23.832 10.285h3.285v8.231h-3.285zm4.037 0h3.285v8.231h-3.285zm3.894 0h3.287v8.231h-3.287zm4.035 0h3.289v8.231h-3.289zm3.932 0h3.285v8.231h-3.285zm4.035 0h3.285v8.231h-3.285zm3.899 0h3.283v8.231h-3.283z"/><path d="M505.077 114.554h3.285v8.231h-3.285zm4.037 0h3.285v8.231h-3.285zm3.894 0h3.287v8.231h-3.287zm4.035 0h3.289v8.231h-3.289zm3.932 0h3.285v8.231h-3.285zm4.035 0h3.285v8.231h-3.285zm3.899 0h3.283v8.231h-3.283zm-23.832 10.213h3.285v8.23h-3.285zm4.037 0h3.285v8.23h-3.285zm3.894 0h3.287v8.23h-3.287zm4.035 0h3.289v8.23h-3.289zm3.932 0h3.285v8.23h-3.285zm4.035 0h3.285v8.23h-3.285zm3.899 0h3.283v8.23h-3.283z"/></g><path fill="#FFF" d="M476.713 29.599h55.93v2.174h-55.93zm0-2.768h55.93v2.172h-55.93zm0-2.798h55.93v2.173h-55.93zm0 19.761h55.93v2.173h-55.93zm0-2.768h55.93v2.172h-55.93zm0-2.798h55.93v2.173h-55.93zm6.83 163.228c-3.594 0-6.504 2.89-6.504 6.453v24.92h13.008v-24.92c0-3.563-2.914-6.453-6.504-6.453zm14.385 0c-3.594 0-6.504 2.89-6.504 6.453v24.92h13.008v-24.92c0-3.563-2.912-6.453-6.504-6.453zm14.004 0c-3.59 0-6.504 2.89-6.504 6.453v24.92h13.008v-24.92c0-3.563-2.912-6.453-6.504-6.453zm13.977 0c-3.59 0-6.504 2.89-6.504 6.453v24.92h13.008v-24.92c0-3.563-2.913-6.453-6.504-6.453zm-49.264-58.111h55.93v2.172h-55.93zm0-2.772h55.93v2.174h-55.93zm0-2.797h55.93v2.172h-55.93zm0 16.71h55.93v2.171h-55.93zm0-2.768h55.93v2.17h-55.93zm0-2.8h55.93v2.172h-55.93zm0 16.397h55.93v2.172h-55.93zm0-2.77h55.93v2.171h-55.93zm0-2.798h55.93v2.171h-55.93zm0 17.616h55.93v2.17h-55.93zm0-2.772h55.93v2.174h-55.93zm0-2.797h55.93v2.171h-55.93z"/><path fill="#808083" d="M92.138 11.752h62.89v219.536h-62.89z"/><g fill="#FFF"><path d="M95.428 49.016h3.283v8.23h-3.283zm4.035 0h3.285v8.23h-3.285zm3.901 0h3.285v8.23h-3.285zm4.035 0h3.285v8.23h-3.285zm3.93 0h3.285v8.23h-3.285zm4.035 0h3.285v8.23h-3.285zm3.896 0h3.285v8.23h-3.285z"/><path d="M95.428 49.016h3.283v8.23h-3.283zm4.035 0h3.285v8.23h-3.285zm3.901 0h3.285v8.23h-3.285zm4.035 0h3.285v8.23h-3.285zm3.93 0h3.285v8.23h-3.285zm4.035 0h3.285v8.23h-3.285zm3.896 0h3.285v8.23h-3.285zM95.428 59.153h3.283v8.229h-3.283zm4.035 0h3.285v8.229h-3.285zm3.901 0h3.285v8.229h-3.285zm4.035 0h3.285v8.229h-3.285zm3.93 0h3.285v8.229h-3.285zm4.035 0h3.285v8.229h-3.285zm3.896 0h3.285v8.229h-3.285zM95.428 69.776h3.283v8.229h-3.283zm4.035 0h3.285v8.229h-3.285zm3.901 0h3.285v8.229h-3.285zm4.035 0h3.285v8.229h-3.285zm3.93 0h3.285v8.229h-3.285zm4.035 0h3.285v8.229h-3.285zm3.896 0h3.285v8.229h-3.285z"/><path d="M95.428 69.776h3.283v8.229h-3.283zm4.035 0h3.285v8.229h-3.285zm3.901 0h3.285v8.229h-3.285zm4.035 0h3.285v8.229h-3.285zm3.93 0h3.285v8.229h-3.285zm4.035 0h3.285v8.229h-3.285zm3.896 0h3.285v8.229h-3.285zM95.428 79.989h3.283v8.228h-3.283zm4.035 0h3.285v8.228h-3.285zm3.901 0h3.285v8.228h-3.285zm4.035 0h3.285v8.228h-3.285zm3.93 0h3.285v8.228h-3.285zm4.035 0h3.285v8.228h-3.285zm3.896 0h3.285v8.228h-3.285zM95.428 90.425h3.283v8.23h-3.283zm4.035 0h3.285v8.23h-3.285zm3.901 0h3.285v8.23h-3.285zm4.035 0h3.285v8.23h-3.285zm3.93 0h3.285v8.23h-3.285zm4.035 0h3.285v8.23h-3.285zm3.896 0h3.285v8.23h-3.285z"/><path d="M95.428 90.425h3.283v8.23h-3.283zm4.035 0h3.285v8.23h-3.285zm3.901 0h3.285v8.23h-3.285zm4.035 0h3.285v8.23h-3.285zm3.93 0h3.285v8.23h-3.285zm4.035 0h3.285v8.23h-3.285zm3.896 0h3.285v8.23h-3.285zm-23.832 10.138h3.283v8.229h-3.283zm4.035 0h3.285v8.229h-3.285zm3.901 0h3.285v8.229h-3.285zm4.035 0h3.285v8.229h-3.285zm3.93 0h3.285v8.229h-3.285zm4.035 0h3.285v8.229h-3.285zm3.896 0h3.285v8.229h-3.285zm-23.832 10.286h3.283v8.231h-3.283zm4.035 0h3.285v8.231h-3.285zm3.901 0h3.285v8.231h-3.285zm4.035 0h3.285v8.231h-3.285zm3.93 0h3.285v8.231h-3.285zm4.035 0h3.285v8.231h-3.285zm3.896 0h3.285v8.231h-3.285z"/><path d="M95.428 110.849h3.283v8.231h-3.283zm4.035 0h3.285v8.231h-3.285zm3.901 0h3.285v8.231h-3.285zm4.035 0h3.285v8.231h-3.285zm3.93 0h3.285v8.231h-3.285zm4.035 0h3.285v8.231h-3.285zm3.896 0h3.285v8.231h-3.285zm-23.832 10.213h3.283v8.23h-3.283zm4.035 0h3.285v8.23h-3.285zm3.901 0h3.285v8.23h-3.285zm4.035 0h3.285v8.23h-3.285zm3.93 0h3.285v8.23h-3.285zm4.035 0h3.285v8.23h-3.285zm3.896 0h3.285v8.23h-3.285z"/><g><path d="M123.792 49.016h3.285v8.23h-3.285zm4.037 0h3.285v8.23h-3.285zm3.894 0h3.287v8.23h-3.287zm4.035 0h3.289v8.23h-3.289zm3.932 0h3.287v8.23h-3.287zm4.035 0h3.285v8.23h-3.285zm3.899 0h3.283v8.23h-3.283z"/><path d="M123.792 49.016h3.285v8.23h-3.285zm4.037 0h3.285v8.23h-3.285zm3.894 0h3.287v8.23h-3.287zm4.035 0h3.289v8.23h-3.289zm3.932 0h3.287v8.23h-3.287zm4.035 0h3.285v8.23h-3.285zm3.899 0h3.283v8.23h-3.283zm-23.832 10.137h3.285v8.229h-3.285zm4.037 0h3.285v8.229h-3.285zm3.894 0h3.287v8.229h-3.287zm4.035 0h3.289v8.229h-3.289zm3.932 0h3.287v8.229h-3.287zm4.035 0h3.285v8.229h-3.285zm3.899 0h3.283v8.229h-3.283zm-23.832 10.623h3.285v8.229h-3.285zm4.037 0h3.285v8.229h-3.285zm3.894 0h3.287v8.229h-3.287zm4.035 0h3.289v8.229h-3.289zm3.932 0h3.287v8.229h-3.287zm4.035 0h3.285v8.229h-3.285zm3.899 0h3.283v8.229h-3.283z"/><path d="M123.792 69.776h3.285v8.229h-3.285zm4.037 0h3.285v8.229h-3.285zm3.894 0h3.287v8.229h-3.287zm4.035 0h3.289v8.229h-3.289zm3.932 0h3.287v8.229h-3.287zm4.035 0h3.285v8.229h-3.285zm3.899 0h3.283v8.229h-3.283zm-23.832 10.213h3.285v8.228h-3.285zm4.037 0h3.285v8.228h-3.285zm3.894 0h3.287v8.228h-3.287zm4.035 0h3.289v8.228h-3.289zm3.932 0h3.287v8.228h-3.287zm4.035 0h3.285v8.228h-3.285zm3.899 0h3.283v8.228h-3.283zm-23.832 10.436h3.285v8.23h-3.285zm4.037 0h3.285v8.23h-3.285zm3.894 0h3.287v8.23h-3.287zm4.035 0h3.289v8.23h-3.289zm3.932 0h3.287v8.23h-3.287zm4.035 0h3.285v8.23h-3.285zm3.899 0h3.283v8.23h-3.283z"/><path d="M123.792 90.425h3.285v8.23h-3.285zm4.037 0h3.285v8.23h-3.285zm3.894 0h3.287v8.23h-3.287zm4.035 0h3.289v8.23h-3.289zm3.932 0h3.287v8.23h-3.287zm4.035 0h3.285v8.23h-3.285zm3.899 0h3.283v8.23h-3.283zm-23.832 10.138h3.285v8.229h-3.285zm4.037 0h3.285v8.229h-3.285zm3.894 0h3.287v8.229h-3.287zm4.035 0h3.289v8.229h-3.289zm3.932 0h3.287v8.229h-3.287zm4.035 0h3.285v8.229h-3.285zm3.899 0h3.283v8.229h-3.283zm-23.832 10.286h3.285v8.231h-3.285zm4.037 0h3.285v8.231h-3.285zm3.894 0h3.287v8.231h-3.287zm4.035 0h3.289v8.231h-3.289zm3.932 0h3.287v8.231h-3.287zm4.035 0h3.285v8.231h-3.285zm3.899 0h3.283v8.231h-3.283z"/><path d="M123.792 110.849h3.285v8.231h-3.285zm4.037 0h3.285v8.231h-3.285zm3.894 0h3.287v8.231h-3.287zm4.035 0h3.289v8.231h-3.289zm3.932 0h3.287v8.231h-3.287zm4.035 0h3.285v8.231h-3.285zm3.899 0h3.283v8.231h-3.283zm-23.832 10.213h3.285v8.23h-3.285zm4.037 0h3.285v8.23h-3.285zm3.894 0h3.287v8.23h-3.287zm4.035 0h3.289v8.23h-3.289zm3.932 0h3.287v8.23h-3.287zm4.035 0h3.285v8.23h-3.285zm3.899 0h3.283v8.23h-3.283z"/></g><path d="M95.428 25.894h55.93v2.174h-55.93zm0-2.769h55.93v2.172h-55.93zm0-2.797h55.93v2.173h-55.93zm0 19.761h55.93v2.173h-55.93zm0-2.768h55.93v2.172h-55.93zm0-2.799h55.93v2.173h-55.93zm6.83 163.229c-3.594 0-6.504 2.89-6.504 6.453v24.92h13.01v-24.92c0-3.563-2.914-6.453-6.506-6.453zm14.385 0c-3.592 0-6.504 2.89-6.504 6.453v24.92h13.008v-24.92c0-3.563-2.912-6.453-6.504-6.453zm14.004 0c-3.59 0-6.504 2.89-6.504 6.453v24.92h13.008v-24.92c0-3.563-2.912-6.453-6.504-6.453zm13.978 0c-3.592 0-6.504 2.89-6.504 6.453v24.92h13.006v-24.92c0-3.563-2.912-6.453-6.502-6.453zM95.362 139.64h55.928v2.172H95.362zm0-2.772h55.928v2.174H95.362zm0-2.797h55.928v2.172H95.362zm0 16.71h55.928v2.171H95.362zm0-2.768h55.928v2.17H95.362zm0-2.8h55.928v2.172H95.362zm0 16.397h55.928v2.172H95.362zm0-2.77h55.928v2.171H95.362zm0-2.798h55.928v2.171H95.362zm0 17.616h55.928v2.17H95.362zm0-2.772h55.928v2.174H95.362zm0-2.797h55.928v2.171H95.362z"/></g><path d="M548.713 137.411h4.447v96.347h-4.447zm8.899 0h4.447v96.347h-4.447zm8.896 0h4.451v96.347h-4.451zm8.899 0h4.445v96.347h-4.445zm8.896 0h4.449v96.347h-4.449z" fill="#808083"/><path fill="#A5A7AA" d="M-185.459 135.765h56.168v102.462h-56.168z"/><path d="M-181.952 139.587h4.45v96.347h-4.45zm8.896 0h4.451v96.347h-4.451zm8.899 0h4.449v96.347h-4.449zm8.9 0h4.447v96.347h-4.447zm8.894 0h4.45v96.347h-4.45zm8.9 0h4.448v96.347h-4.448z" fill="#FFF"/><path fill="#808083" d="M-181.952 128.942h48.938v6.822h-48.938zM-177.502 139.587h4.446v96.347h-4.446zm8.898 0h4.447v96.347h-4.447zm8.896 0h4.451v96.347h-4.451zm8.898 0h4.446v96.347h-4.446zm8.897 0h4.45v96.347h-4.45zM194.34 31.917h5.754v185.466h-5.754zm11.516 0h5.754v185.466h-5.754zm11.512 0h5.758v185.466h-5.758zm11.515 0h5.758v185.466h-5.758zm11.512 0h5.76v185.466h-5.76z"/></svg>